<svg xmlns="http://www.w3.org/2000/svg" width="75" height="75.809" viewBox="0 0 75 75.809"><defs><style>.a{fill:#257f9b;}</style></defs><g transform="translate(0 0)"><path class="a" d="M158.711,218.936H144.776a2.111,2.111,0,0,0-2.112,2.112v27.344a2.111,2.111,0,0,0,2.112,2.112h13.936a2.111,2.111,0,0,0,2.112-2.112V221.048A2.111,2.111,0,0,0,158.711,218.936ZM156.6,246.28h-9.713V223.159H156.6Z" transform="translate(-114.239 -174.694)"/><path class="a" d="M295.176,136.911H281.135a2.111,2.111,0,0,0-2.112,2.112v43.92a2.111,2.111,0,0,0,2.112,2.112h14.042a2.111,2.111,0,0,0,2.112-2.112v-43.92A2.112,2.112,0,0,0,295.176,136.911Zm-2.112,43.92h-9.819v-39.7h9.819Z" transform="translate(-223.043 -109.244)"/><path class="a" d="M21.935,269.613H7.894a2.111,2.111,0,0,0-2.112,2.112v17.1a2.111,2.111,0,0,0,2.112,2.112H21.935a2.111,2.111,0,0,0,2.112-2.112v-17.1A2.112,2.112,0,0,0,21.935,269.613Zm-2.112,17.1H10.005v-12.88h9.819v12.88Z" transform="translate(-5.018 -215.13)"/><path class="a" d="M76.458,2.118a1.8,1.8,0,0,0-1.373-.739L55.871.006a2.117,2.117,0,0,0-.317,4.223l13.6.923-25,19.558L25.043,9.719a2.112,2.112,0,0,0-2.745.105L2.661,28.617a2.112,2.112,0,0,0-.105,2.956,1.9,1.9,0,0,0,1.584.739,2.111,2.111,0,0,0,1.478-.634L23.882,14.153l18.9,14.886a2.112,2.112,0,0,0,2.639,0L72.447,8.007,71.391,21.121A2.217,2.217,0,0,0,73.4,23.338H73.5a2.112,2.112,0,0,0,2.112-1.9L76.986,3.6A1.69,1.69,0,0,0,76.458,2.118Z" transform="translate(-2.003 0)"/></g></svg>