<svg xmlns="http://www.w3.org/2000/svg" width="102" height="84.477" viewBox="0 0 102 84.477"><defs><style>.a{fill:#257f9b;}</style></defs><path class="a" d="M94.154,43.979H7.846A7.763,7.763,0,0,0,0,51.825V120.61a7.764,7.764,0,0,0,7.846,7.846H94.154A7.763,7.763,0,0,0,102,120.61V51.825A7.764,7.764,0,0,0,94.154,43.979Zm0,76.631H7.846L7.786,51.83a.249.249,0,0,1,.06-.005H94.154V120.61Z" transform="translate(0 -43.979)"/><g transform="translate(1.599 23.538)"><path class="a" d="M45.41,163.551a3.924,3.924,0,0,0-5.343-.658L8.028,186.431l4.646,6.324,29.057-21.348,41.316,49.85,6.039-5.007Z" transform="translate(-8.028 -162.132)"/></g><g transform="translate(53.265 27.594)"><path class="a" d="M290.815,183.335a3.924,3.924,0,0,0-4.876.007l-18.569,14.777,4.885,6.14,16.134-12.839,21.358,16.9,4.867-6.153Z" transform="translate(-267.369 -182.489)"/></g></svg>