<svg xmlns="http://www.w3.org/2000/svg" width="111.5" height="111.5" viewBox="0 0 111.5 111.5"><defs><style>.a{fill:#257f9b;}</style></defs><path class="a" d="M98.434,8.711H93.207V0H84.5V8.711H27V0H18.293V8.711H13.066A13.081,13.081,0,0,0,0,21.777V98.434A13.081,13.081,0,0,0,13.066,111.5H98.434A13.081,13.081,0,0,0,111.5,98.434V21.777A13.081,13.081,0,0,0,98.434,8.711Zm4.355,89.723a4.36,4.36,0,0,1-4.355,4.355H13.066a4.36,4.36,0,0,1-4.355-4.355V40.941h94.078Zm0-66.2H8.711V21.777a4.36,4.36,0,0,1,4.355-4.355h5.227v8.711H27V17.422H84.5v8.711h8.711V17.422h5.227a4.36,4.36,0,0,1,4.355,4.355Z"/><g transform="translate(16.855 50.564)"><g transform="translate(0 0)"><rect class="a" width="8" height="7" transform="translate(0.146 0.436)"/></g></g><g transform="translate(33.709 50.564)"><g transform="translate(0 0)"><rect class="a" width="9" height="7" transform="translate(0.291 0.436)"/></g></g><g transform="translate(51.86 50.564)"><g transform="translate(0 0)"><rect class="a" width="8" height="7" transform="translate(0.14 0.436)"/></g></g><g transform="translate(68.715 50.564)"><g transform="translate(0 0)"><rect class="a" width="9" height="7" transform="translate(0.285 0.436)"/></g></g><g transform="translate(86.866 50.564)"><g transform="translate(0 0)"><rect class="a" width="8" height="7" transform="translate(0.134 0.436)"/></g></g><g transform="translate(16.855 67.419)"><g transform="translate(0 0)"><rect class="a" width="8" height="9" transform="translate(0.146 -0.419)"/></g></g><g transform="translate(33.709 67.419)"><g transform="translate(0 0)"><rect class="a" width="9" height="9" transform="translate(0.291 -0.419)"/></g></g><g transform="translate(51.86 67.419)"><g transform="translate(0 0)"><rect class="a" width="8" height="9" transform="translate(0.14 -0.419)"/></g></g><g transform="translate(68.715 67.419)"><g transform="translate(0 0)"><rect class="a" width="9" height="9" transform="translate(0.285 -0.419)"/></g></g><g transform="translate(16.855 85.57)"><g transform="translate(0 0)"><rect class="a" width="8" height="7" transform="translate(0.146 0.43)"/></g></g><g transform="translate(33.709 85.57)"><g transform="translate(0 0)"><rect class="a" width="9" height="7" transform="translate(0.291 0.43)"/></g></g><g transform="translate(51.86 85.57)"><g transform="translate(0 0)"><rect class="a" width="8" height="7" transform="translate(0.14 0.43)"/></g></g><g transform="translate(68.715 85.57)"><g transform="translate(0 0)"><rect class="a" width="9" height="7" transform="translate(0.285 0.43)"/></g></g><g transform="translate(86.866 67.419)"><g transform="translate(0 0)"><rect class="a" width="8" height="9" transform="translate(0.134 -0.419)"/></g></g></svg>