<svg xmlns="http://www.w3.org/2000/svg" width="66.003" height="66.003" viewBox="0 0 66.003 66.003"><defs><style>.a{fill:#fff;}</style></defs><path class="a" d="M54.637,90a5.808,5.808,0,0,0,0-8.2L46.683,73.84a5.851,5.851,0,0,0-4.626-1.692,5.716,5.716,0,0,0-4.193,2.363c-.2.283-.4.57-.589.859l16,16Z" transform="translate(-32.469 -62.83)"/><path class="a" d="M308.162,336.525l-7.955-7.955a5.808,5.808,0,0,0-8.2,0l-1.368,1.368,16,16q.434-.287.858-.59a5.716,5.716,0,0,0,2.363-4.193A5.85,5.85,0,0,0,308.162,336.525Z" transform="translate(-253.169 -284.736)"/><path class="a" d="M32,156.613a5.763,5.763,0,0,1-4.1-1.7l-8.462-8.462a5.81,5.81,0,0,1-1.135-6.6l-15.47-15.47A29.21,29.21,0,0,0,8.5,157.52l8.333,8.333a29.078,29.078,0,0,0,18.314,8.408q1.135.088,2.267.088a29.229,29.229,0,0,0,12.559-2.829L34.5,156.049A5.778,5.778,0,0,1,32,156.613Z" transform="translate(0 -108.345)"/><path class="a" d="M288.933,0a1.934,1.934,0,1,0,0,3.867,23.231,23.231,0,0,1,23.2,23.2,1.934,1.934,0,0,0,3.867,0A27.1,27.1,0,0,0,288.933,0Z" transform="translate(-250.001)"/><path class="a" d="M288.933,183.866a.009.009,0,0,1,0,0,1.934,1.934,0,1,0,3.867,0A3.872,3.872,0,0,0,288.933,180a1.933,1.933,0,1,0,0,3.866Z" transform="translate(-250.001 -156.796)"/><path class="a" d="M288.933,123.867a7.744,7.744,0,0,1,7.735,7.735,1.934,1.934,0,0,0,3.867,0,11.615,11.615,0,0,0-11.6-11.6,1.934,1.934,0,1,0,0,3.867Z" transform="translate(-250.001 -104.53)"/><path class="a" d="M288.933,60a1.934,1.934,0,1,0,0,3.867A15.487,15.487,0,0,1,304.4,79.337a1.934,1.934,0,1,0,3.867,0A19.359,19.359,0,0,0,288.933,60Z" transform="translate(-250.001 -52.265)"/></svg>