<svg xmlns="http://www.w3.org/2000/svg" width="42.173" height="33.936" viewBox="0 0 42.173 33.936"><defs><style>.a{fill:#171717;}</style></defs><path class="a" d="M72.166,286.46a8.285,8.285,0,0,1-5.534-2.113,8.482,8.482,0,0,0-1.633,5v7.166a2.474,2.474,0,0,0,2.471,2.471h9.39a2.474,2.474,0,0,0,2.471-2.471v-7.166a8.482,8.482,0,0,0-1.633-5A8.285,8.285,0,0,1,72.166,286.46Z" transform="translate(-59.646 -265.044)"/><path class="a" d="M38.466,50H3.707A3.711,3.711,0,0,0,0,53.707v18.78A3.712,3.712,0,0,0,2.883,76.1V74.3A10.944,10.944,0,0,1,5.34,67.4l.036-.042a8.319,8.319,0,1,1,14.287,0l.036.042a10.945,10.945,0,0,1,2.457,6.9v1.894H38.466a3.711,3.711,0,0,0,3.707-3.707V53.707A3.711,3.711,0,0,0,38.466,50ZM23.722,69.6a1.236,1.236,0,1,1,1.236-1.236A1.236,1.236,0,0,1,23.722,69.6Zm0-5.272A1.236,1.236,0,1,1,24.958,63.1,1.236,1.236,0,0,1,23.722,64.332Zm0-5.271a1.236,1.236,0,1,1,1.236-1.236A1.236,1.236,0,0,1,23.722,59.061ZM35.584,69.6h-6.59a1.236,1.236,0,1,1,0-2.471h6.59a1.236,1.236,0,1,1,0,2.471Zm0-5.272h-6.59a1.236,1.236,0,0,1,0-2.471h6.59a1.236,1.236,0,1,1,0,2.471Zm0-5.272h-6.59a1.236,1.236,0,0,1,0-2.471h6.59a1.236,1.236,0,1,1,0,2.471Z" transform="translate(0 -50)"/><ellipse class="a" cx="5.652" cy="6.086" rx="5.652" ry="6.086" transform="translate(6.956 6.982)"/></svg>