<svg xmlns="http://www.w3.org/2000/svg" width="113" height="113" viewBox="0 0 113 113"><defs><style>.a{fill:#fff;}</style></defs><g transform="translate(16.553)"><path class="a" d="M88.242,0A13.421,13.421,0,0,0,75,13.463a13.242,13.242,0,0,0,26.484,0A13.422,13.422,0,0,0,88.242,0Zm0,20.084a6.629,6.629,0,0,1-6.621-6.621,6.625,6.625,0,1,1,13.242,0A6.629,6.629,0,0,1,88.242,20.084Z" transform="translate(-75)"/></g><path class="a" d="M103.068,0H56.279a9.943,9.943,0,0,0-9.932,9.932V32.524l-2.91-2.909a9.866,9.866,0,0,0-7.022-2.91H16.553A16.572,16.572,0,0,0,0,43.258V63.121a9.934,9.934,0,0,0,13.242,9.364v30.583a9.927,9.927,0,0,0,16.553,7.4,9.927,9.927,0,0,0,16.553-7.4V59.246a9.97,9.97,0,0,0,7.752-.484l11.147-5.573h37.822A9.943,9.943,0,0,0,113,43.258V9.932A9.943,9.943,0,0,0,103.068,0ZM64.381,46.219,51.143,52.839a3.31,3.31,0,0,1-3.825-.619L45.378,50.28a3.312,3.312,0,0,0-5.652,2.331s0,.006,0,.01v50.448a3.311,3.311,0,0,1-6.621,0V69.742a3.311,3.311,0,0,0-6.621,0v33.326a3.311,3.311,0,0,1-6.621,0V43.258a3.311,3.311,0,1,0-6.621,0V63.121a3.311,3.311,0,1,1-6.621,0c0-2.5,0-17.823,0-19.863a9.943,9.943,0,0,1,9.932-9.932H36.416a3.288,3.288,0,0,1,2.34.97l9.867,9.867a3.311,3.311,0,0,0,3.821.62L61.42,40.3a3.311,3.311,0,0,1,2.961,5.924Zm42-2.962a3.314,3.314,0,0,1-3.311,3.311H72.262c.02-.057.042-.112.061-.17a9.894,9.894,0,0,0,.437-4.37l18.1-9.052A3.311,3.311,0,1,0,87.9,27.055L69.8,36.106a9.923,9.923,0,0,0-11.343-1.732l-5.49,2.745V9.932a3.314,3.314,0,0,1,3.311-3.311h46.789a3.314,3.314,0,0,1,3.311,3.311Z"/></svg>