<svg xmlns="http://www.w3.org/2000/svg" width="59.61" height="52.068" viewBox="0 0 59.61 52.068"><defs><style>.a{fill:#257f9b;}</style></defs><g transform="translate(0 0)"><g transform="translate(0 0)"><path class="a" d="M59.331,45.473l-8.632-6.1V30.469a1.918,1.918,0,0,0-1.644-1.713H11.236a1.918,1.918,0,0,0-1.644,1.713v8.838L.617,45.473A1.507,1.507,0,0,0,0,46.569V79.112a1.987,1.987,0,0,0,1.713,1.713H58.577c.754,0,1.028-.891,1.028-1.713V46.569C59.6,46.158,59.673,45.747,59.331,45.473ZM50.7,42.664l5.892,4.042L50.7,51.159ZM12.332,31.5H47.958V53.283L30.145,66.711,12.332,53.283V31.5ZM9.592,42.6v8.632L3.7,46.706ZM2.74,49.515,21.924,64.039,2.74,76.988ZM6.029,78.084,24.253,65.821l4.864,3.7a1.643,1.643,0,0,0,.959.343c.274,0,.411-.137.685-.343l5.07-3.905,18.43,12.469Zm50.835-1.576L38.092,63.9,56.864,49.515Z" transform="translate(0 -28.756)"/><path class="a" d="M137.207,99.414h6.166a1.37,1.37,0,1,0,0-2.74h-6.166a1.37,1.37,0,0,0,0,2.74Z" transform="translate(-118.024 -87.768)"/><path class="a" d="M137.207,146.435h21.924a1.37,1.37,0,0,0,0-2.74H137.207a1.37,1.37,0,1,0,0,2.74Z" transform="translate(-118.024 -128.622)"/><path class="a" d="M160.5,192.085a1.37,1.37,0,0,0-1.37-1.37H137.207a1.37,1.37,0,0,0,0,2.74h21.924A1.37,1.37,0,0,0,160.5,192.085Z" transform="translate(-118.024 -169.477)"/></g></g></svg>