<svg xmlns="http://www.w3.org/2000/svg" xmlns:xlink="http://www.w3.org/1999/xlink" width="572.768" height="423.84" viewBox="0 0 572.768 423.84"><defs><style>.a,.f,.j{opacity:0.1;}.b,.f{fill:#257f9b;}.c,.d{fill:none;stroke:#535461;stroke-miterlimit:10;}.d{stroke-width:2px;}.e{opacity:0.25;}.g{fill:url(#a);}.h{fill:#fdc2cc;}.i{opacity:0.03;}.k{fill:#fff;opacity:0.15;}.l{fill:#865a61;}</style><linearGradient id="a" x1="0.5" y1="1" x2="0.5" gradientUnits="objectBoundingBox"><stop offset="0" stop-color="gray" stop-opacity="0.251"/><stop offset="0.54" stop-color="gray" stop-opacity="0.122"/><stop offset="1" stop-color="gray" stop-opacity="0.102"/></linearGradient></defs><g transform="translate(0.007 0.02)"><g class="a" transform="translate(436.924 249.191)"><path class="b" d="M910.051,619.157s-40.889-5.309-10.395,60.869c0,0,27.79-11.908,28.9-38.769a21.374,21.374,0,0,0-17.923-22.016Z" transform="translate(-888.357 -568.087)"/><path class="c" d="M921.024,619.06s9.256,36.9-10.964,60.973" transform="translate(-898.73 -568.089)"/><path class="d" d="M909,657.381s14.722-36.284,42.215-49.743a59.333,59.333,0,0,0,26.944-26.156,99.788,99.788,0,0,0,6.75-16.952" transform="translate(-898.223 -542.028)"/><path class="b" d="M1071.288,535.353c-2.866,3.6-17.7,8.875-17.7,8.875s1.786-15.662,4.652-19.238a8.353,8.353,0,1,1,13.052,10.379Z" transform="translate(-967.326 -521.428)"/><path class="b" d="M1059.732,587.712c-4.365,1.467-19.672-2.182-19.672-2.182s10-12.154,14.362-13.621a8.353,8.353,0,1,1,5.309,15.8Z" transform="translate(-960.86 -545.256)"/><path class="b" d="M1010.341,652.316c-4.505-.934-15.881-11.814-15.881-11.814s14.764-5.445,19.275-4.511a8.353,8.353,0,0,1-3.394,16.32Z" transform="translate(-939.067 -576.129)"/><path class="b" d="M957.721,691.982c-4.6-.162-17.651-8.959-17.651-8.959s13.636-7.873,18.236-7.706a8.353,8.353,0,0,1-.585,16.659Z" transform="translate(-913.072 -594.975)"/><path class="b" d="M1012.617,569.883c.59,4.568,10.556,16.743,10.556,16.743s6.562-14.3,5.978-18.873a8.353,8.353,0,1,0-16.534,2.13Z" transform="translate(-947.67 -539.826)"/><path class="b" d="M952.777,615.156c1.926,4.177,15.083,12.817,15.083,12.817s1.984-15.615.058-19.792a8.353,8.353,0,1,0-15.14,6.98Z" transform="translate(-918.663 -560.332)"/><path class="b" d="M902.211,670.267c1.19,4.448,12.7,15.182,12.7,15.182s4.594-15.051,3.4-19.5a8.353,8.353,0,1,0-16.1,4.318Z" transform="translate(-894.765 -587.283)"/><path class="e" d="M1071.288,535.353c-2.866,3.6-17.7,8.875-17.7,8.875s1.786-15.662,4.652-19.238a8.353,8.353,0,1,1,13.052,10.379Z" transform="translate(-967.326 -521.428)"/><path class="e" d="M1059.732,587.712c-4.365,1.467-19.672-2.182-19.672-2.182s10-12.154,14.362-13.621a8.353,8.353,0,1,1,5.309,15.8Z" transform="translate(-960.86 -545.256)"/><path class="e" d="M1010.341,652.316c-4.505-.934-15.881-11.814-15.881-11.814s14.764-5.445,19.275-4.511a8.353,8.353,0,0,1-3.394,16.32Z" transform="translate(-939.067 -576.129)"/><path class="e" d="M957.721,691.982c-4.6-.162-17.651-8.959-17.651-8.959s13.636-7.873,18.236-7.706a8.353,8.353,0,0,1-.585,16.659Z" transform="translate(-913.072 -594.975)"/><path class="e" d="M1012.617,569.883c.59,4.568,10.556,16.743,10.556,16.743s6.562-14.3,5.978-18.873a8.353,8.353,0,1,0-16.534,2.13Z" transform="translate(-947.67 -539.826)"/><path class="e" d="M952.777,615.156c1.926,4.177,15.083,12.817,15.083,12.817s1.984-15.615.058-19.792a8.353,8.353,0,1,0-15.14,6.98Z" transform="translate(-918.663 -560.332)"/><path class="e" d="M902.211,670.267c1.19,4.448,12.7,15.182,12.7,15.182s4.594-15.051,3.4-19.5a8.353,8.353,0,1,0-16.1,4.318Z" transform="translate(-894.765 -587.283)"/><path class="d" d="M946.56,689s14.722-36.284,42.215-49.743a59.333,59.333,0,0,0,26.928-26.161,99.786,99.786,0,0,0,6.751-16.952" transform="translate(-916.174 -557.135)"/><path class="b" d="M1108.8,567.681c-2.866,3.6-17.7,8.875-17.7,8.875s1.786-15.662,4.652-19.238A8.353,8.353,0,0,1,1108.8,567.7Z" transform="translate(-985.254 -537.259)"/><path class="b" d="M1097.262,619.626c-4.365,1.467-19.672-2.182-19.672-2.182s10-12.154,14.362-13.621a8.353,8.353,0,0,1,5.309,15.8Z" transform="translate(-978.797 -560.673)"/><path class="b" d="M1047.871,683.956c-4.505-.935-15.881-11.814-15.881-11.814s14.764-5.445,19.275-4.511a8.353,8.353,0,0,1-3.394,16.32Z" transform="translate(-957.003 -591.251)"/><path class="b" d="M995.241,723.577c-4.6-.162-17.651-8.959-17.651-8.959s13.637-7.862,18.236-7.7a8.353,8.353,0,0,1-.585,16.659Z" transform="translate(-931.004 -610.078)"/><path class="b" d="M1050.137,601.523c.59,4.568,10.556,16.743,10.556,16.743s6.562-14.3,5.978-18.873a8.353,8.353,0,1,0-16.534,2.13Z" transform="translate(-965.602 -554.948)"/><path class="b" d="M990.718,647.609c1.927,4.177,15.083,12.817,15.083,12.817s1.984-15.615.057-19.792a8.353,8.353,0,0,0-15.14,6.98Z" transform="translate(-937.011 -576.308)"/><path class="b" d="M940,702.865c1.19,4.448,12.7,15.182,12.7,15.182s4.594-15.051,3.4-19.5a8.353,8.353,0,0,0-16.1,4.318Z" transform="translate(-912.963 -603.373)"/></g><path class="f" d="M63.3,474.07c9.063,38.738,28.249,72.224,58.571,88.455C184.886,596.256,327,578.861,433.064,558.87a242.873,242.873,0,0,0,138.1-78.937Z" transform="translate(-57.117 -249.604)"/><path class="f" d="M632.9,86.227h-58.2a5.03,5.03,0,1,1,0-10.06h10.06a5.03,5.03,0,0,1,0-10.06h-7.184a5.03,5.03,0,1,1,0-10.06h30.374a80.375,80.375,0,0,0-23.692-6.531c-82.822-10.64-112.392-3.6-122.823,3.655a115.985,115.985,0,0,1-42.57,18.659C367.766,82.359,272.2,95.045,185.584,67.756c-43.05-13.574-75.048,9.356-94.224,47.655H643c-.72-11.131-2.877-21.405-6.834-30.406A5,5,0,0,1,632.9,86.227Z" transform="translate(-70.527 -44.1)"/><path class="f" d="M52.694,319.2a256.369,256.369,0,0,0,2.261,67.588L565.9,405.473a240.155,240.155,0,0,0,35.5-54.139Zm202.084,48.213h-10.06a5.03,5.03,0,0,1,0,10.06h-58.2a5.03,5.03,0,0,1,0-10.06h10.06a5.03,5.03,0,1,1,0-10.06H189.4a5.03,5.03,0,1,1,0-10.06h58.2a5.03,5.03,0,1,1,0,10.06h7.184a5.03,5.03,0,0,1,0,10.06Z" transform="translate(-51.45 -175.587)"/><path class="f" d="M625.174,181.38,67.344,194.954C60.562,212.4,56.088,232.115,54,252.554H615.4a238.306,238.306,0,0,0,8.108-36.717A173.984,173.984,0,0,0,625.174,181.38ZM167.248,225.845h-10.06a5.03,5.03,0,0,1,0,10.06h-58.2a5.03,5.03,0,0,1,0-10.06h10.06a5.03,5.03,0,0,1,0-10.06h-7.184a5.03,5.03,0,1,1,0-10.06h58.2a5.03,5.03,0,1,1,0,10.06h7.184a5.03,5.03,0,0,1,0,10.06Z" transform="translate(-52.672 -109.719)"/><path class="g" d="M610.666,479.047s-23.264-127.595-67.624-148.3c-37.589-17.557-78.238-29.393-89.8-32.6a49.916,49.916,0,0,0-5.957-7.774c-15.8-16.492-25.289-16.184-26.824-15.981a80.314,80.314,0,0,1-1.566-9.919c-.047-.522-.094-1.008-.136-1.524l.136-.068q-.141-1.48-.251-3.054a78.625,78.625,0,0,0,17.641-12.848c.068.224.125.449.2.679Q453.564,233.218,469.936,218c3.132-2.929,6.422-6.108,7.487-10.238a15.024,15.024,0,0,0,.392-4.344c.141-3.132-.6-6.333-.726-9.507a10.883,10.883,0,0,1,.125-1.5c.731-5.195,4.344-9.46,7.309-13.819a65.166,65.166,0,0,0,11.084-37.307A63.172,63.172,0,0,0,493,122.487c-2.313-7.737-7.126-15.866-15.14-17.557-3.1-.653-6.322-.245-9.486-.449-13.1-.835-22.9-11.486-33.35-19.291a88.027,88.027,0,0,0-43.635-16.936c-4.934-.522-10.029-.559-14.722,1.008-10.541,3.508-16.941,14.341-27.1,18.795-7.507,3.31-16.184,2.772-24.015,5.257C313.893,97.02,304,108.975,303.739,121.26v1.592c-.13,6.207,2.088,12.53,2.266,18.883q0,.861.026,1.728a56.831,56.831,0,0,1-3.378,20.189c-1.347,3.472-3.08,7.492-2.8,10.964a7.338,7.338,0,0,0,1.733,5.743l2.522-2.224a76.251,76.251,0,0,0,26.234,72.485q.146,2.344.282,5.022c.4,7.737.71,17.442.621,28.02l-24.621,22.632-63.3,28.714s-57.887,12.227-45.42,93.55l5.952,50.495h52.849l-.12.266h78.441l.047-.266H521.71l-.036.266h7.309v-.266ZM420.929,275.684a54.26,54.26,0,0,1,3.759,10.337,42.347,42.347,0,0,1-4.056-10.9l.078.141Zm-89.7,10.441q0,1.493-.052,3.012l-.125.177a25.589,25.589,0,0,1,.178-3.216Z" transform="translate(-120.609 -55.499)"/><path class="h" d="M553.481,422.147,543.04,521.864l-55.862,17.75S414.61,526.04,433.4,486.885c13.37-27.853,13-77.627,11.674-104.044-.522-10.723-1.232-17.6-1.232-17.6s95.017-83.01,87.186-8.353c-1.514,14.456-1.6,25.759-.762,34.593C533.794,428.256,553.481,422.147,553.481,422.147Z" transform="translate(-232.514 -178.714)"/><path class="i" d="M553.481,422.147,543.04,521.864l-55.862,17.75S414.61,526.04,433.4,486.885c13.37-27.853,13-77.627,11.674-104.044-.522-10.723-1.232-17.6-1.232-17.6s95.017-83.01,87.186-8.353c-1.514,14.456-1.6,25.759-.762,34.593C533.794,428.256,553.481,422.147,553.481,422.147Z" transform="translate(-232.514 -178.714)"/><path class="j" d="M543.436,353.888c-1.514,14.456-1.6,25.759-.762,34.593a75.737,75.737,0,0,1-85.192-8.64c-.522-10.723-1.232-17.6-1.232-17.6S551.267,279.232,543.436,353.888Z" transform="translate(-244.918 -177.28)"/><circle class="h" cx="75.701" cy="75.701" r="75.701" transform="translate(185.75 65.934)"/><circle class="i" cx="75.701" cy="75.701" r="75.701" transform="translate(185.75 65.934)"/><path class="b" d="M610.044,671.432h-392.6l-5.743-49.6c-12.008-79.877,43.854-91.885,43.854-91.885l61.083-28.192,24.276-22.71c-7.831,29.758,51.424,91.624,51.424,91.624h0a14.044,14.044,0,0,0,1.081-1.122c1.6-1.744,5.414-6.108,14.352-16.936,3.2-3.879,7.053-8.583,11.7-14.294,22.345-27.461,10.88-59.908,7.455-66.616l-.214-.418c-.131-.24-.23-.433-.308-.569a.852.852,0,0,0-.078-.141.828.828,0,0,1-.057-.1l28.714,22.449s1.1.292,3.132.867c11.172,3.132,50.422,14.78,86.664,32.024C587.594,546.134,610.044,671.432,610.044,671.432Z" transform="translate(-127.233 -247.883)"/><path class="b" d="M635.189,551.808c-4.7-4.7-36.545-10.441-36.545-10.441,1.044,12.53-37.589,31.846-37.589,31.846l2.871,98.15H545.4l-3.133-88.23,8.875-12.53h0l1.081-1.122a172.3,172.3,0,0,0,14.352-16.936c3.2-3.879,7.053-8.583,11.7-14.294,22.345-27.461,10.88-59.908,7.455-66.617l-.214-.418c-.125-.245-.225-.433-.308-.569a.847.847,0,0,0-.078-.141.843.843,0,0,1-.057-.1h0s9.4-2.088,26.1,15.662a48.946,48.946,0,0,1,5.743,7.654C630.5,515.5,639.329,555.948,635.189,551.808Z" transform="translate(-286.029 -247.814)"/><path class="j" d="M635.189,551.808c-4.7-4.7-36.545-10.441-36.545-10.441,1.044,12.53-37.589,31.846-37.589,31.846l2.871,98.15H545.4l-3.133-88.23,8.875-12.53h0l1.081-1.122a172.3,172.3,0,0,0,14.352-16.936c3.2-3.879,7.053-8.583,11.7-14.294,22.345-27.461,10.88-59.908,7.455-66.617l-.214-.418c-.125-.245-.225-.433-.308-.569a.847.847,0,0,0-.078-.141.843.843,0,0,1-.057-.1h0s9.4-2.088,26.1,15.662a48.946,48.946,0,0,1,5.743,7.654C630.5,515.5,639.329,555.948,635.189,551.808Z" transform="translate(-286.029 -247.814)"/><path class="j" d="M313.25,703.4s24.537,50.119,25.843,79.616" transform="translate(-176.574 -359.207)"/><path class="j" d="M767.348,714.31l-7.048,50.9h7.048Z" transform="translate(-363.371 -341.397)"/><path class="j" d="M323.75,651.987,362.644,563.5s10.964-20.883,13.574-41.766,16.706-53.773,16.706-53.773,34.979-44.376,51.163-38.111-14.1,29.758-14.1,29.758,44.376,17.228,14.1,68.392-30.8,41.766-30.8,41.766l-14.879,82.227Z" transform="translate(-181.593 -228.178)"/><path class="h" d="M321.75,651.977l38.894-88.491s10.964-20.883,13.574-41.766c1.66-13.276,7.962-31.408,12.331-42.857A65.706,65.706,0,0,1,398.933,458.5c11.308-12.655,31.846-33.063,43.155-28.678,16.184,6.265-14.1,29.758-14.1,29.758s44.376,17.228,14.1,68.392-30.8,41.766-30.8,41.766l-14.879,82.226Z" transform="translate(-180.637 -228.168)"/><circle class="k" cx="1.566" cy="1.566" r="1.566" transform="translate(283.117 97.519)"/><circle class="k" cx="1.566" cy="1.566" r="1.566" transform="translate(275.808 100.652)"/><path class="j" d="M426.5,109.849c7.554-2.443,15.939-1.916,23.185-5.163,9.8-4.4,15.975-15.036,26.145-18.481,4.532-1.535,9.449-1.477,14.206-.987a84.09,84.09,0,0,1,42.11,16.638c10.081,7.669,19.541,18.126,32.181,18.946,3.054.2,6.16-.2,9.152.439,7.747,1.66,12.389,9.643,14.618,17.228a64.873,64.873,0,0,1-8.176,53.565c-2.861,4.281-6.348,8.473-7.053,13.574-.689,5,1.441,10.186.2,15.083-1.044,4.057-4.177,7.179-7.226,10.055q-15.793,14.937-32.28,29.106c-5.711-18.147,2.668-37.688,1.363-56.666-.522-7.393-3.133-15.464-9.653-18.951-6.1-3.258-13.9-1.566-20.079-4.7-6.891-3.472-9.721-11.694-14.931-17.385-8.875-9.711-24.282-10.964-36.691-6.578s-22.554,13.407-32.368,22.2l-17.839,16c-3.482-3.926-.841-9.951,1.044-14.858,2.809-7.356,3.425-15.286,3.237-23.1-.151-6.265-2.313-12.451-2.187-18.549C405.707,125.245,415.25,113.488,426.5,109.849Z" transform="translate(-218.829 -63.613)"/><path class="l" d="M426.5,106.849c7.554-2.443,15.939-1.916,23.185-5.163,9.8-4.4,15.975-15.036,26.145-18.481,4.532-1.535,9.449-1.477,14.206-.987a84.09,84.09,0,0,1,42.11,16.638c10.081,7.669,19.541,18.126,32.181,18.946,3.054.2,6.16-.2,9.152.439,7.747,1.66,12.389,9.643,14.618,17.228a64.873,64.873,0,0,1-8.176,53.565c-2.861,4.281-6.348,8.473-7.053,13.574-.689,5,1.441,10.186.2,15.083-1.044,4.057-4.177,7.179-7.226,10.055q-15.793,14.937-32.28,29.106c-5.711-18.147,2.668-37.688,1.363-56.666-.522-7.393-3.133-15.464-9.653-18.951-6.1-3.258-13.9-1.566-20.079-4.7-6.891-3.472-9.721-11.694-14.931-17.385-8.875-9.711-24.282-10.964-36.691-6.578s-22.554,13.407-32.368,22.2l-17.839,16c-3.482-3.926-.841-9.951,1.044-14.858,2.809-7.356,3.425-15.286,3.237-23.1-.151-6.265-2.313-12.451-2.187-18.549C405.707,122.245,415.25,110.488,426.5,106.849Z" transform="translate(-218.829 -62.18)"/></g></svg>