<svg xmlns="http://www.w3.org/2000/svg" width="42.533" height="22.153" viewBox="0 0 42.533 22.153"><defs><style>.a{fill:#171717;}</style></defs><g transform="translate(0 -6.5)"><g transform="translate(31.9 9.158)"><path class="a" d="M21.544,15.089a3.544,3.544,0,1,1,3.544-3.544A3.555,3.555,0,0,1,21.544,15.089Zm0-5.317a1.674,1.674,0,0,0-1.772,1.772,1.772,1.772,0,0,0,3.544,0A1.674,1.674,0,0,0,21.544,9.772Z" transform="translate(-18 -8)"/></g><g transform="translate(31.9 18.019)"><path class="a" d="M27.747,20.089a.837.837,0,0,1-.886-.886V17.431A2.726,2.726,0,0,0,24.2,14.772H18.886a.886.886,0,1,1,0-1.772H24.2a4.387,4.387,0,0,1,4.431,4.431V19.2A.837.837,0,0,1,27.747,20.089Z" transform="translate(-18 -13)"/></g><g transform="translate(3.544 9.158)"><path class="a" d="M5.544,15.089a3.544,3.544,0,1,1,3.544-3.544A3.555,3.555,0,0,1,5.544,15.089Zm0-5.317a1.674,1.674,0,0,0-1.772,1.772,1.674,1.674,0,0,0,1.772,1.772,1.674,1.674,0,0,0,1.772-1.772A1.674,1.674,0,0,0,5.544,9.772Z" transform="translate(-2 -8)"/></g><g transform="translate(0 18.019)"><path class="a" d="M.886,20.089A.837.837,0,0,1,0,19.2V17.431A4.387,4.387,0,0,1,4.431,13H9.747a.886.886,0,1,1,0,1.772H4.431a2.726,2.726,0,0,0-2.658,2.658V19.2A.837.837,0,0,1,.886,20.089Z" transform="translate(0 -13)"/></g><g transform="translate(15.95 6.5)"><path class="a" d="M14.317,17.133A5.222,5.222,0,0,1,9,11.817,5.222,5.222,0,0,1,14.317,6.5a5.222,5.222,0,0,1,5.317,5.317A5.222,5.222,0,0,1,14.317,17.133Zm0-8.861a3.544,3.544,0,1,0,3.544,3.544A3.555,3.555,0,0,0,14.317,8.272Z" transform="translate(-9 -6.5)"/></g><g transform="translate(11.519 19.792)"><path class="a" d="M25.108,22.861a.837.837,0,0,1-.886-.886V18.431a2.726,2.726,0,0,0-2.658-2.658H10.931a2.726,2.726,0,0,0-2.658,2.658v3.544a.837.837,0,0,1-.886.886.837.837,0,0,1-.886-.886V18.431A4.387,4.387,0,0,1,10.931,14H21.564a4.387,4.387,0,0,1,4.431,4.431v3.544A.837.837,0,0,1,25.108,22.861Z" transform="translate(-6.5 -14)"/></g></g></svg>