<svg xmlns="http://www.w3.org/2000/svg" width="88.273" height="114.019" viewBox="0 0 88.273 114.019"><defs><style>.a{fill:#fff;}</style></defs><g transform="translate(-13 -1)"><path class="a" d="M29,23H40.034v3.678H29Z" transform="translate(13.424 18.458)"/><path class="a" d="M95.756,48.814H93.917V43.3a5.517,5.517,0,1,0-11.034,0v5.855A5.51,5.51,0,0,0,79.2,54.331V58.64a9.138,9.138,0,0,0,2.694,6.5l.853.853-1.4,8.384A34.955,34.955,0,0,0,56.805,54.618l-.736-2.937a12.89,12.89,0,0,0,8.276-10.225h.147A7.346,7.346,0,0,0,70.62,30.044l.587-2.345A21.48,21.48,0,0,0,50.36,1H45.521A21.482,21.482,0,0,0,24.678,27.7l.587,2.347A7.343,7.343,0,0,0,31.39,41.458h.147a12.893,12.893,0,0,0,8.276,10.225l-.726,2.9A31.971,31.971,0,0,0,13,85.858V94.79a20.253,20.253,0,0,0,20.229,20.229H49.78a7.347,7.347,0,0,0,7.235-6.161,19.941,19.941,0,0,1,6.751-1.2h8.082v-4.114l2.564,3.075a13.111,13.111,0,0,0,23.183-8.393v-32.1l.984-.984a9.138,9.138,0,0,0,2.694-6.5V54.331a5.524,5.524,0,0,0-5.517-5.517ZM88.4,41.458A1.84,1.84,0,0,1,90.239,43.3v5.855a5.5,5.5,0,0,0-1.839,1.1,5.466,5.466,0,0,0-1.839-1.1V43.3A1.84,1.84,0,0,1,88.4,41.458Zm-38.86,58.849a5.25,5.25,0,0,0-9.7-.776l-.386.776H35.068V81.917h4.4A19.978,19.978,0,0,1,49.78,84.782v15.525Zm-4.993-40.1-5.015,4.011-2.187-5.467a28.248,28.248,0,0,1,2.97-.66Zm2.944,10.675h.9l3.025,10.589a23.638,23.638,0,0,0-6.232-2.525ZM48.644,67.2H47.239l-1.585-3.17,2.288-1.83,2.288,1.83Zm2.692-7,4.208-2.1c1,.2,1.988.452,2.955.743l-2.15,5.372Zm9.478-29.783a3.678,3.678,0,1,1-3.678-3.678A3.682,3.682,0,0,1,60.814,30.424Zm3.678,7.356V30.424a3.678,3.678,0,1,1,0,7.356ZM45.523,4.678h4.838A17.814,17.814,0,0,1,67.639,26.811l-.147.59a7.279,7.279,0,0,0-3-.655H64.4A9.182,9.182,0,0,0,56.439,18.6l-.971-.121a6.5,6.5,0,0,1-5.688-6.444H46.1A10.185,10.185,0,0,0,55.01,22.127l.971.121a5.485,5.485,0,0,1,2.431.947,7.487,7.487,0,0,0-1.276-.127,7.346,7.346,0,0,0-7.095,5.517h-4.2a7.265,7.265,0,0,0-10.687-4.542A5.5,5.5,0,0,1,40.4,19.409a14.217,14.217,0,0,0,4.686,5.19l2.039-3.06a10.53,10.53,0,0,1-4.7-8.778v-.726H38.746v.726a14.279,14.279,0,0,0,.359,3.1,9.186,9.186,0,0,0-7.715,9.044v1.839a7.279,7.279,0,0,0-3,.655l-.147-.59A17.814,17.814,0,0,1,45.523,4.678ZM38.746,26.746a3.678,3.678,0,1,1-3.678,3.678A3.682,3.682,0,0,1,38.746,26.746ZM27.712,34.1a3.682,3.682,0,0,1,3.678-3.678V37.78A3.682,3.682,0,0,1,27.712,34.1Zm7.356,5.517V36.758a7.27,7.27,0,0,0,10.773-4.495h4.2a7.27,7.27,0,0,0,10.773,4.495v2.862a9.206,9.206,0,0,1-9.2,9.2H44.263A9.206,9.206,0,0,1,35.068,39.619Zm9.2,12.873h7.356c.287,0,.57-.024.851-.042l.684,2.735-5.214,2.608-5.214-2.608.684-2.735c.281.018.565.042.851.042ZM16.678,94.79V85.858a28.306,28.306,0,0,1,17.189-25.9l4.094,10.232,4.758-3.8,1.422,2.841-2.6,9.112c-.686-.061-1.372-.1-2.063-.1H31.39v21.73a5.51,5.51,0,0,1-3.678-5.179V74.561H24.034V94.79a9.206,9.206,0,0,0,9.2,9.2h5.517v7.356H33.229A16.569,16.569,0,0,1,16.678,94.79Zm33.1,16.551H42.424V102.58l.7-1.405a1.571,1.571,0,0,1,2.976.7v2.108H49.78a3.678,3.678,0,1,1,0,7.356Zm18.39-7.356h-4.4a23.574,23.574,0,0,0-7.121,1.1,7.352,7.352,0,0,0-3.187-3.755V84.782a19.982,19.982,0,0,1,10.308-2.865h4.4Zm16.314,3.678a9.407,9.407,0,0,1-7.246-3.395L71.849,97.8V78.239H63.766A23.669,23.669,0,0,0,54.821,80L51.744,69.226l1.422-2.841,4.758,3.8,4.031-10.076A31.318,31.318,0,0,1,79.563,80.092l.535,1.819L77.389,98.166l3.628.6L86.279,67.2h7.637V98.231a9.443,9.443,0,0,1-9.432,9.432Zm11.494-45.12-.984.984H85.483l-.984-.984a5.488,5.488,0,0,1-1.616-3.9V54.331a1.839,1.839,0,1,1,3.678,0,5.524,5.524,0,0,0,5.517,5.517h5.386A5.5,5.5,0,0,1,95.978,62.543Zm1.616-6.372H92.078a1.839,1.839,0,0,1,0-3.678h3.678a1.84,1.84,0,0,1,1.839,1.839Z" transform="translate(0)"/></g></svg>