<svg xmlns="http://www.w3.org/2000/svg" width="68" height="76.851" viewBox="0 0 68 76.851"><defs><style>.a{fill:#257f9b;}</style></defs><path class="a" d="M55.89,55.171c.149-.243.3-.482.448-.729,6.715-11.118,10.095-20.843,10.046-28.9a20.984,20.984,0,1,0-41.968,0c-.049,8.063,3.331,17.79,10.046,28.907.149.248.3.486.448.729-14.138,1.747-23.51,6.8-23.51,12.8C11.4,75.5,26.332,81.4,45.4,81.4s34-5.9,34-13.431c0-6-9.373-11.052-23.51-12.8ZM26.679,25.538a18.722,18.722,0,0,1,37.444,0C64.219,41.613,49.2,61.431,45.4,66.183c-3.8-4.752-18.82-24.57-18.721-40.645ZM45.4,79.139c-18.985,0-31.738-5.775-31.738-11.169,0-4.783,9.456-9.234,22.581-10.677a119.773,119.773,0,0,0,8.3,11.411,1.13,1.13,0,0,0,1.723,0,119.779,119.779,0,0,0,8.3-11.411c13.122,1.443,22.581,5.891,22.581,10.677C77.138,73.363,64.385,79.139,45.4,79.139Z" transform="translate(-11.4 -4.55)"/><path class="a" d="M42.544,107.974c-5.02-.643-9.049-1.774-11.343-3.183a1.131,1.131,0,1,0-1.185,1.927c2.562,1.574,6.909,2.818,12.241,3.5a1.1,1.1,0,0,0,.145.009,1.131,1.131,0,0,0,.142-2.253Z" transform="translate(-17.792 -39.937)"/><path class="a" d="M63.66,110.626c-1.577.036-3.218.028-4.821-.031a1.132,1.132,0,1,0-.083,2.262c.994.036,2,.055,3,.055q.987,0,1.953-.023a1.131,1.131,0,0,0,1.1-1.157,1.118,1.118,0,0,0-1.158-1.106Z" transform="translate(-27.76 -42.049)"/><path class="a" d="M68.326,31.8a9.552,9.552,0,1,0-9.553,9.554A9.552,9.552,0,0,0,68.326,31.8Zm-16.842,0a7.29,7.29,0,1,1,7.29,7.291,7.29,7.29,0,0,1-7.29-7.291Z" transform="translate(-24.774 -10.807)"/></svg>