<svg xmlns="http://www.w3.org/2000/svg" width="570.966" height="632.733" viewBox="0 0 570.966 632.733"><defs><style>.a{fill:#707070;}.b{opacity:0.1;}.c,.f{fill:#257f9b;}.c{opacity:0.3;}.d{fill:#fff;}.e{fill:#d0cde1;}.g{fill:#3f3d56;}.h{fill:#2f2e41;}.i{fill:#a0616a;}</style></defs><g transform="translate(0 0)"><path class="a" d="M596.417,473.552c311.321,208.3,210.14,285.921-194.19,215.227C296.58,670.309,208.036,592.42,208.036,473.552s86.942-215.227,194.19-215.227S497.624,407.451,596.417,473.552Z" transform="translate(-208.036 -81.563)"/><ellipse class="b" cx="122.987" cy="11.004" rx="122.987" ry="11.004" transform="translate(293.227 572.91)"/><ellipse class="b" cx="65.186" cy="11.004" rx="65.186" ry="11.004" transform="translate(108.47 210.197)"/><path class="b" d="M391.883,356.532A148.255,148.255,0,0,0,258.126,440.8a148.258,148.258,0,0,1,243.553,163.56,148.236,148.236,0,0,0-109.8-247.826Z" transform="translate(-221.643 -108.242)"/><path class="c" d="M510.766,552.756a147.6,147.6,0,0,1-14.487,63.992A148.262,148.262,0,0,1,252.74,453.162a148.236,148.236,0,0,1,258.027,99.594Z" transform="translate(-216.245 -121.279)"/><path class="d" d="M386.213,652.563c-82.137,0-148.961-66.823-148.961-148.96a148.858,148.858,0,0,1,148.961-148.96c82.137,0,148.96,66.823,148.96,148.961A148.952,148.952,0,0,1,386.2,652.564Zm0-296.463a148.36,148.36,0,0,0-133.089,83.827A146.109,146.109,0,0,0,238.709,503.6c0,81.334,66.17,147.5,147.5,147.5a147.5,147.5,0,0,0,147.5-147.514c0-81.323-66.17-147.494-147.5-147.494Z" transform="translate(-215.973 -107.729)"/><path class="e" d="M903.82,759.6c-10.766,14.08-9.535,33.109-9.535,33.109s18.686-3.8,29.452-17.879,9.535-33.109,9.535-33.109S914.585,745.519,903.82,759.6Z" transform="translate(-394.451 -212.882)"/><path class="f" d="M907.692,758.171c-2.089,17.6-16.232,30.391-16.232,30.391s-10.755-15.746-8.666-33.347,16.232-30.392,16.232-30.392S909.781,740.571,907.692,758.171Z" transform="translate(-391.268 -208.292)"/><circle class="a" cx="61.165" cy="61.165" r="61.165" transform="translate(64.712 15.245)"/><path class="f" d="M502.423,154.406c.03,61.1-36.281,82.444-81.082,82.466q-1.561,0-3.107-.033-3.114-.066-6.164-.281c-40.435-2.843-71.863-25.253-71.891-82.072-.028-58.8,75.088-133.044,80.722-138.533,0,0,0,0,.01,0,.214-.209.324-.314.324-.314S502.394,93.315,502.423,154.406Z" transform="translate(-243.934 -15.633)"/><path class="g" d="M435.373,227.527l29.649-41.469L435.3,232.078l-.077,4.76q-3.114-.066-6.164-.281l3.167-61.123-.025-.473.055-.09.3-5.776-29.841-46.105,29.929,41.779.075,1.225,2.392-46.181-25.55-47.646,25.86,39.53,2.468-95.745.01-.319v.314l-.382,75.506L462.91,61.507l-25.5,36.448-.652,41.35,23.715-39.693-23.807,45.773-.362,22.993,34.417-55.253L436.175,176.4Z" transform="translate(-260.923 -15.633)"/><path class="h" d="M758.615,249.08c-7.775-13.137-23.156-13.749-23.156-13.749s-14.989-1.917-24.6,18.091c-8.962,18.649-21.331,36.655-1.991,41.02l3.493-10.873,2.163,11.682a75.664,75.664,0,0,0,8.275.141c20.711-.669,40.435.2,39.8-7.236C761.751,278.277,766.1,261.721,758.615,249.08Z" transform="translate(-341.309 -75.303)"/><path class="i" d="M525.862,407.843l2,20,46.331-5,1-15Z" transform="translate(-142.856 -110.795)"/><path class="h" d="M717.288,437.459l-1.333,11.666s-15.333,21.332-14,58-21,199.658-5,200.992,44.665,3.333,46-1.667,4-194.658,4-194.658,7,194.895,19,195.561,52.331,2,52.331-3-35.332-228.227-35.332-228.227l-5.666-18.666-5.666-23s-35.332,6-45,3.666S717.288,437.459,717.288,437.459Z" transform="translate(-339.281 -129.412)"/><circle class="i" cx="21.332" cy="21.332" r="21.332" transform="translate(372.673 173.054)"/><path class="i" d="M777.1,321.459l-4.05,5.893-2.593,3.77-4.356,6.336-21.666,1.667s-5.263-1.7-11.336-4.183c-2.243-.92-4.6-1.947-6.84-3.037-8.69-4.22-15.663-9.37-7.823-12.779a26.027,26.027,0,0,0,4-2.147,20.3,20.3,0,0,0,3.2-2.593,17.472,17.472,0,0,0,4.8-15.593l21-3c-.61,5.326,4.687,11.136,10.623,15.879,1.95,1.563,3.973,3.007,5.876,4.28C772.927,319.292,777.1,321.459,777.1,321.459Z" transform="translate(-345.766 -91.742)"/><path class="e" d="M744.576,335.686s-20.5-3.5-25.166-10.833c0,0-20.166,2.5-18.5,13.166s18.333,69,18.333,69,41.665-8,57-2l9.333-74.33s-3.333-7.333-9.666-5.333-8.833.167-8.833.167S759.909,335.686,744.576,335.686Z" transform="translate(-341.904 -99.636)"/><path class="i" d="M782.3,500.36s14.333,16,6.333,18.666-17.666-10.666-17.666-10.666Z" transform="translate(-360.962 -147.314)"/><path class="i" d="M789.839,502.19s-11.666,8-7.333,13.333,19.332-4.666,19.332-6.666S789.839,502.19,789.839,502.19Z" transform="translate(-363.834 -147.811)"/><path class="h" d="M745.868,409.724l-9.666,1.667-6.333-47a168.755,168.755,0,0,0-.843-25.552c-.707-5.666-1.887-11.113-3.826-14.926a20.306,20.306,0,0,0,3.2-2.593c2.32,3.677,6.553,11.463,7.463,20.556a33.126,33.126,0,0,1,0,6.85c-1.667,15.666-1.333,18.666-1.333,18.666Z" transform="translate(-348.529 -98.676)"/><path class="e" d="M716.4,328.369s-15.666-4.333-17,5,.333,33.332,4,42.332,16.332,38.332,16.332,38.332,23,29.332,24,36.332,6,14.333,6,14.333l16-10.333-31.332-53L720.737,364.7S726.4,331.369,716.4,328.369Z" transform="translate(-341.397 -100.318)"/><path class="e" d="M802.645,330.574l7.333,1.667s6.666,28.665,4,44-3,20.666-3,20.666l-2.333,43.665s.667,28-4,23.666-14-6.333-14-6.333,1-12.333,4.666-15.333c0,0,4.333-23,1.667-33S802.645,330.574,802.645,330.574Z" transform="translate(-366.308 -101.19)"/><path class="h" d="M802.312,359.381l-8.5,49.164-5.167-2.167,9-47L788,337.045,779.6,317.6c1.95,1.563,3.973,3.007,5.876,4.28l5.116,11.4Z" transform="translate(-363.308 -97.664)"/><path class="h" d="M553.121,233.886l-15.2-7.96-20.986,3.256L512.6,248.359l10.808-.416,3.02-7.045v6.929l4.987-.192,2.894-11.216,1.809,11.94L553.845,248Z" transform="translate(-139.252 -61.375)"/><ellipse class="h" cx="10.357" cy="3.884" rx="10.357" ry="3.884" transform="translate(373.492 576.147)"/><ellipse class="h" cx="10.357" cy="3.884" rx="10.357" ry="3.884" transform="translate(443.401 576.147)"/><path class="d" d="M429.479,614.177a72.691,72.691,0,0,1-71.954,4.191l1.6-3.27a69.556,69.556,0,1,0-38.853-60.241l-3.64.112a73.2,73.2,0,1,1,112.844,59.208Z" transform="translate(-237.528 -141.634)"/><path class="d" d="M404.3,574.008c-10.769,2.383-25.1,3.836-35.544,2.319l13.109,9.983-36.7,23.67,1.974,3.06,36.7-23.67,3.689,16.063C390.452,595.3,397.687,582.838,404.3,574.008Z" transform="translate(-245.288 -167.321)"/></g></svg>