<svg xmlns="http://www.w3.org/2000/svg" width="30.4" height="30.299" viewBox="0 0 30.4 30.299"><defs><style>.a{fill:#707070;}</style></defs><g transform="translate(0 -0.85)"><g transform="translate(0 0.85)"><path class="a" d="M15.149,28.624H3.787a1.263,1.263,0,0,1-1.262-1.262V4.637A1.263,1.263,0,0,1,3.787,3.375H15.149a1.262,1.262,0,0,0,0-2.525H3.787A3.792,3.792,0,0,0,0,4.637V27.361a3.792,3.792,0,0,0,3.787,3.787H15.149a1.262,1.262,0,1,0,0-2.525Z" transform="translate(0 -0.85)"/></g><g transform="translate(10.1 7.162)"><path class="a" d="M190.024,115.1l-7.676-7.575a1.262,1.262,0,1,0-1.772,1.8l5.485,5.413h-14.7a1.262,1.262,0,0,0,0,2.525h14.7l-5.485,5.413a1.262,1.262,0,1,0,1.772,1.8l7.676-7.575a1.262,1.262,0,0,0,0-1.8Z" transform="translate(-170.1 -107.165)"/></g></g></svg>