<svg xmlns="http://www.w3.org/2000/svg" width="44.442" height="52.667" viewBox="0 0 44.442 52.667"><defs><style>.a{fill:none;stroke:#707070;stroke-width:3px;}</style></defs><g transform="translate(1.527 1.5)"><path class="a" d="M83.916,41.892l-3.553-5.923a17.593,17.593,0,0,1-2.508-9.052V21.729A14.5,14.5,0,0,0,67.507,7.854V4.139a4.139,4.139,0,0,0-8.278,0V7.854A14.5,14.5,0,0,0,48.882,21.729v5.188a17.6,17.6,0,0,1-2.506,9.05L42.823,41.89a1.037,1.037,0,0,0,.886,1.569H83.028a1.034,1.034,0,0,0,.888-1.567Z" transform="translate(-42.675)"/><g transform="translate(14.176 45.528)"><path class="a" d="M188.815,469.333a7.2,7.2,0,0,0,13.033,0Z" transform="translate(-188.815 -469.333)"/></g></g></svg>