<?xml version="1.0"?>
<svg xmlns="http://www.w3.org/2000/svg" viewBox="0 0 256 256" width="512" height="512"><path d="M212.5,6H43.5a10,10,0,0,0-10,10V224.64a10,10,0,0,0,10,10H85.22V205.09a3.529,3.529,0,0,1,3.53-3.53h80.5a3.529,3.529,0,0,1,3.53,3.53v29.55H212.5a10,10,0,0,0,10-10V16A10,10,0,0,0,212.5,6Z" fill="#afafaf"/><path d="M211.5,17V209.22H172.78v-4.13a3.529,3.529,0,0,0-3.53-3.53H88.75a3.529,3.529,0,0,0-3.53,3.53v4.13H44.5V17Z" fill="#efefef"/><path d="M160.3,177.8H97.682a5.716,5.716,0,0,0-5.717,5.717v18.05h74.07v-18.05A5.731,5.731,0,0,0,160.3,177.8Z" fill="#fff"/><path d="M169.25,201.56H88.75a3.529,3.529,0,0,0-3.53,3.53V250h87.56V205.09A3.529,3.529,0,0,0,169.25,201.56Z" fill="#fc5d3d"/><path d="M175.72,100.94a47.7,47.7,0,0,1-24.83,41.88,9.964,9.964,0,0,0-1.83-.17H124.24a5.294,5.294,0,0,1-5.3-5.29V123.11a9.992,9.992,0,0,0-9.99-10,9.845,9.845,0,0,0-3.4.6,9.981,9.981,0,0,0-6.6,9.4V138.8a47.72,47.72,0,1,1,76.77-37.86Z" fill="#13bf6d"/><path d="M157.32,92.05l-31.41,31.41a7.461,7.461,0,0,1-6.97,2v-2.35a9.992,9.992,0,0,0-9.99-10,9.845,9.845,0,0,0-3.4.6l-6.87-6.87v-.01a7.5,7.5,0,0,1,10.61-10.6l11.32,11.32,26.1-26.1a7.5,7.5,0,0,1,10.61,10.6Z" fill="#fff"/><path d="M150.89,142.82a9.964,9.964,0,0,0-1.83-.17H124.24a5.294,5.294,0,0,1-5.3-5.29V123.11a9.992,9.992,0,0,0-9.99-10,9.845,9.845,0,0,0-3.4.6,9.981,9.981,0,0,0-6.6,9.4v54.68h60.1V152.64A9.986,9.986,0,0,0,150.89,142.82Z" fill="#ffb69f"/><path d="M146.25,134.354a2.5,2.5,0,0,1,.778-3.449q.4-.255.793-.518a2.5,2.5,0,1,1,2.8,4.144c-.3.2-.609.406-.92.6A2.5,2.5,0,0,1,146.25,134.354Zm8.8-6.609a2.5,2.5,0,0,1-.245-3.526A35.539,35.539,0,0,0,128,65.352a2.5,2.5,0,1,1,0-5A40.537,40.537,0,0,1,158.578,127.5,2.5,2.5,0,0,1,155.052,127.745Z" fill="#76ffba"/><path d="M58.417,199.3a2.5,2.5,0,0,1-2.5-2.5v-3.537a2.5,2.5,0,0,1,5,0V196.8A2.5,2.5,0,0,1,58.417,199.3Zm0-13.537a2.5,2.5,0,0,1-2.5-2.5V29.425a2.5,2.5,0,0,1,2.5-2.5H197.583a2.5,2.5,0,0,1,0,5H60.917V183.259A2.5,2.5,0,0,1,58.417,185.759Z" fill="#fff"/><path d="M97.71,246.833a2.5,2.5,0,0,1-2.5-2.5v-3a2.5,2.5,0,0,1,5,0v3A2.5,2.5,0,0,1,97.71,246.833Zm0-13a2.5,2.5,0,0,1-2.5-2.5V214.344a2.5,2.5,0,0,1,2.5-2.5h62.58a2.5,2.5,0,1,1,0,5H100.21v14.489A2.5,2.5,0,0,1,97.71,233.833Z" fill="#ffcbc2"/><path d="M225,224.64V16A12.517,12.517,0,0,0,212.5,3.5H43.5A12.516,12.516,0,0,0,31,16V31.5a2.5,2.5,0,0,0,5,0V16a7.529,7.529,0,0,1,7.5-7.5h169A7.529,7.529,0,0,1,220,16V224.64a7.529,7.529,0,0,1-7.5,7.5H175.28V211.72H211.5a2.492,2.492,0,0,0,2.5-2.5V107.939a2.5,2.5,0,1,0-5,0V206.72H175.28v-1.63a6.044,6.044,0,0,0-6.03-6.03h-.715V183.512a8.228,8.228,0,0,0-6.985-8.112V152.64a12.522,12.522,0,0,0-5.272-10.195,50.242,50.242,0,1,0-59.828-2.461V175.4a8.224,8.224,0,0,0-6.985,8.115V199.06H88.75a6.043,6.043,0,0,0-6.03,6.03v1.63H47V19.5H209V87.939a2.5,2.5,0,0,0,5,0V17a2.492,2.492,0,0,0-2.5-2.5H44.5A2.5,2.5,0,0,0,42,17V209.22a2.491,2.491,0,0,0,2.5,2.5H82.72v20.42H43.5a7.529,7.529,0,0,1-7.5-7.5V51.5a2.5,2.5,0,0,0-5,0V224.64a12.517,12.517,0,0,0,12.5,12.5H82.72V250a2.5,2.5,0,0,0,5,0V205.09a1.029,1.029,0,0,1,1.03-1.03h80.5a1.029,1.029,0,0,1,1.03,1.03V250a2.5,2.5,0,0,0,5,0V237.14H212.5A12.517,12.517,0,0,0,225,224.64Zm-68.45-72v22.65h-55.1V123.109a7.495,7.495,0,1,1,14.989,0v14.25a7.8,7.8,0,0,0,7.8,7.79h24.82A7.5,7.5,0,0,1,156.55,152.64Zm-73.77-51.7a45.22,45.22,0,1,1,67.63,39.281c-.653-.058-1.057-.071-1.35-.071H124.24a2.8,2.8,0,0,1-2.8-2.79v-9.25a9.991,9.991,0,0,0,6.241-2.889l31.41-31.4A10,10,0,0,0,144.939,79.68l-4.759,4.77a2.471,2.471,0,0,0,0,3.529,2.54,2.54,0,0,0,3.53,0s.01,0,.01-.009l4.759-4.75a5,5,0,0,1,7.081,7.06l-31.42,31.409a4.924,4.924,0,0,1-2.7,1.391,12.523,12.523,0,0,0-12.489-12.471,14.082,14.082,0,0,0-2.68.29c-6.017-6.015-5.831-5.839-5.831-5.839A5,5,0,0,1,107.52,98l11.32,11.319a2.572,2.572,0,0,0,3.54,0l7.189-7.2a2.5,2.5,0,0,0,0-3.53,2.559,2.559,0,0,0-3.529,0l-5.431,5.42-9.549-9.55a10,10,0,0,0-14.28,14c.116.148,4.516,4.535,4.649,4.669a12.542,12.542,0,0,0-4.979,9.98V133.34A44.824,44.824,0,0,1,82.78,100.939Zm80.755,98.121H94.465V183.512a3.22,3.22,0,0,1,3.217-3.217H160.3a3.229,3.229,0,0,1,3.234,3.217Z"/><circle cx="33.5" cy="41.5" r="2.5"/><circle cx="211.5" cy="97.939" r="2.5"/><path d="M136.64,95.05a2.5,2.5,0,0,0,0-3.53,2.553,2.553,0,0,0-3.54,0,2.5,2.5,0,0,0,3.54,3.53Z"/></svg>
