<svg xmlns="http://www.w3.org/2000/svg" width="86.5" height="92.682" viewBox="0 0 86.5 92.682"><defs><style>.a{fill:#257f9b;}</style></defs><path class="a" d="M116.241,35.4c-4.045-5.393-13.074-6.884-24.886-4.154-.253-.607-.515-1.2-.785-1.785a6.176,6.176,0,0,0-6.893-9.9A12.605,12.605,0,0,0,75.223,16c-3.406,0-6.639,1.571-9.61,4.67a34.182,34.182,0,0,0-6.521,10.575C47.279,28.516,38.251,30.007,34.206,35.4c-4.6,6.133-1.969,16.147,7.022,26.942q-.736.883-1.424,1.771a6.174,6.174,0,0,0-6.11,10.225c-2.464,6.053-2.293,11.2.513,14.945,2.721,3.628,7.7,5.491,14.258,5.49a47.67,47.67,0,0,0,10.629-1.336,34.176,34.176,0,0,0,6.521,10.576c2.971,3.1,6.2,4.671,9.61,4.671s6.639-1.571,9.61-4.67a34.179,34.179,0,0,0,6.521-10.574q1.239.286,2.448.512a6.179,6.179,0,0,0,12.179.573c4.615-.627,8.148-2.423,10.259-5.24,4.6-6.133,1.969-16.146-7.022-26.942C118.21,51.546,120.841,41.532,116.241,35.4Zm-2.472,1.854c3.579,4.771,1.038,13.389-6.61,22.725a89.745,89.745,0,0,0-11.1-10.213,77.57,77.57,0,0,0-3.587-15.6c10.216-2.278,18.111-1.156,21.3,3.093ZM89.459,89.77a79.744,79.744,0,0,1-10.643-3.8,109.519,109.519,0,0,0,9.738-5.68q2.035-1.331,3.995-2.74A71.116,71.116,0,0,1,89.46,89.77Zm-28.474,0A71.138,71.138,0,0,1,57.9,77.549q1.956,1.4,3.995,2.74a109.476,109.476,0,0,0,9.738,5.68,79.76,79.76,0,0,1-10.642,3.8Zm0-54.859a79.743,79.743,0,0,1,10.643,3.8,109.514,109.514,0,0,0-9.738,5.68q-2.035,1.331-3.995,2.74a71.116,71.116,0,0,1,3.091-12.22Zm2.6,42.792c-2.166-1.416-4.275-2.908-6.282-4.439a97.606,97.606,0,0,1,0-21.848c2.007-1.531,4.116-3.023,6.282-4.439a105.212,105.212,0,0,1,11.642-6.607,105.178,105.178,0,0,1,11.642,6.607c2.166,1.416,4.275,2.908,6.282,4.439a96.832,96.832,0,0,1,.613,10.924,96.822,96.822,0,0,1-.613,10.924C91.14,74.8,89.03,76.288,86.865,77.7a105.215,105.215,0,0,1-11.642,6.607A105.178,105.178,0,0,1,63.581,77.7Zm-9.648-7.123a83.384,83.384,0,0,1-8.617-8.24A83.482,83.482,0,0,1,53.934,54.1c-.222,2.712-.337,5.47-.337,8.241s.115,5.528.337,8.24ZM89.46,34.912A71.138,71.138,0,0,1,92.55,47.132q-1.956-1.4-3.995-2.74a109.474,109.474,0,0,0-9.738-5.68,79.757,79.757,0,0,1,10.643-3.8ZM96.512,54.1a83.383,83.383,0,0,1,8.618,8.24,83.481,83.481,0,0,1-8.618,8.241c.222-2.712.337-5.47.337-8.241s-.115-5.528-.337-8.24ZM89.125,25.268a3.089,3.089,0,1,1-3.089-3.089A3.089,3.089,0,0,1,89.125,25.268Zm-13.9-6.179a9.344,9.344,0,0,1,5.942,2.384,6.175,6.175,0,0,0,6.776,9.671q.2.432.386.875a85.759,85.759,0,0,0-13.1,4.927,85.76,85.76,0,0,0-13.106-4.928C65.639,23.777,70.364,19.089,75.223,19.089ZM36.677,37.253c3.187-4.248,11.081-5.371,21.3-3.092a77.565,77.565,0,0,0-3.587,15.6,89.869,89.869,0,0,0-11.1,10.214C35.639,50.642,33.1,42.024,36.677,37.253ZM38.15,66.975a3.089,3.089,0,1,1-3.089,3.089A3.089,3.089,0,0,1,38.15,66.975ZM36.677,87.429c-2.5-3.337-1.7-7.839-.312-11.45a6.176,6.176,0,0,0,6.136-10.3q.384-.489.786-.979a89.74,89.74,0,0,0,11.1,10.214,77.569,77.569,0,0,0,3.587,15.6C47.759,92.8,39.864,91.678,36.677,87.429Zm38.546,18.164c-4.859,0-9.584-4.687-13.106-12.93a85.733,85.733,0,0,0,13.106-4.928,85.783,85.783,0,0,0,13.106,4.928C84.808,100.905,80.082,105.593,75.223,105.593Zm24.715-9.268a3.089,3.089,0,1,1,3.089-3.089A3.089,3.089,0,0,1,99.938,96.325Zm13.83-8.895c-1.564,2.087-4.288,3.454-7.923,3.994a6.179,6.179,0,0,0-11.621-.539q-.866-.164-1.753-.364a77.56,77.56,0,0,0,3.586-15.6A89.847,89.847,0,0,0,107.16,64.7c7.648,9.336,10.189,17.953,6.609,22.725Z" transform="translate(-31.965 -16)"/><path class="a" d="M204.358,192a12.358,12.358,0,1,0,12.358,12.358A12.358,12.358,0,0,0,204.358,192Zm0,21.626a9.268,9.268,0,1,1,9.268-9.268A9.268,9.268,0,0,1,204.358,213.626Z" transform="translate(-161.099 -158.017)"/></svg>