<svg xmlns="http://www.w3.org/2000/svg" width="610.193" height="458.433" viewBox="0 0 610.193 458.433"><defs><style>.a{fill:#e6e6e6;}.b{fill:#3f3d56;}.c{fill:#fff;}.d{fill:#a0616a;}.e{fill:#2f2e41;}.f{fill:#257f9b;}</style></defs><g transform="translate(0 0)"><path class="a" d="M453.239,749.035c0,7.006-64.135,7.753-143.07,12.686-78.861,4.929-143.07-5.68-143.07-12.686s64.5-21.1,143.07-12.686C389.1,744.806,453.239,742.029,453.239,749.035Z" transform="translate(-167.099 -304.552)"/><path class="b" d="M879.184,124.769H709.6a36.05,36.05,0,0,0-35.167,28.121L588.752,532.955a29.136,29.136,0,0,0,26.989,35.508l174.33,8.589a38.491,38.491,0,0,0,39.771-31.594l48.606-268.71,3.616,1.033,9.3-50.931-3.722-.931,13.568-75.007a22.2,22.2,0,0,0-22.024-26.145Z" transform="translate(-291.369 -124.769)"/><path class="c" d="M739.115,136.395h-19.8A24.913,24.913,0,0,0,694.98,156L612.733,532.961a15.437,15.437,0,0,0,14.073,18.695l173.766,11.388a19.992,19.992,0,0,0,20.983-16.406l70.182-389.629A17.511,17.511,0,0,0,874.5,136.394H855.725a8.264,8.264,0,0,0-7.98,6.116h0a7.3,7.3,0,0,1-7.045,5.4H751.55a12.471,12.471,0,0,1-12.435-11.515Z" transform="translate(-298.555 -128.201)"/><path class="d" d="M528.288,407.673,543.609,438l45.811,20.827c4.892,8.268,20.438,8.9,21.569,3.554,1.268-6-18.878-15.652-18.878-15.652l-38.318-25.917L550.441,398.5Z" transform="translate(-273.73 -205.581)"/><path class="d" d="M362.569,575.559l-2.825,22.6,16.388,1.13,1.7-23.735Z" transform="translate(-106.204 -169.917)"/><path class="e" d="M529.761,723.081a44.376,44.376,0,0,1-4.044-4.945c-2.349-3.25-4.433,13.422-4.433,13.422s-2.26,6.781-1.7,10.172,13.563,3.391,15.823,2.826,13.563,0,13.563,0h16.953c14.693-6.781,0-11.3,0-11.3-4.521-.565-19.779-14.693-19.779-14.693l-3.391-6.216c-2.26-.565-4.521,7.911-4.521,7.911Z" transform="translate(-271.135 -298.225)"/><path class="d" d="M302.433,575.96l-2.826,22.6L316,599.695l1.7-23.735Z" transform="translate(-88.45 -170.036)"/><path class="e" d="M469.624,723.482a44.4,44.4,0,0,1-4.044-4.945c-2.349-3.25-4.433,13.422-4.433,13.422s-2.26,6.216-1.7,9.607,13.563,3.391,15.823,2.826,13.563.565,13.563.565h16.953c14.693-6.781,0-11.3,0-11.3-4.521-.565-19.779-14.693-19.779-14.693l-3.391-6.216c-2.26-.565-4.521,7.911-4.521,7.911Z" transform="translate(-253.381 -298.344)"/><path class="e" d="M487.944,493.333c-2.26,2.826-1.13,12.432-1.13,12.432s-3.956,31.081-2.26,33.907-1.13,5.086-2.826,9.042-3.391,13.563-3.391,13.563c-9.607,7.911-9.042,44.078-9.042,44.078L465.9,638.565c1.13,3.391,16.953,3.956,19.214,3.391s9.042-51.425,9.042-51.425l15.258-28.82s-1.13,76.855-1.13,80.245,15.258,1.7,18.648,1.7,3.391-56.511,3.391-56.511l3.391-14.693L551.8,505.2v-7.911l-2.826-3.956S490.2,490.508,487.944,493.333Z" transform="translate(-255.313 -233.206)"/><circle class="d" cx="17.518" cy="17.518" r="17.518" transform="translate(239.978 96.811)"/><path class="d" d="M535.179,298.615c-3.551,7.907-1.448,18.952,5.651,31.081l-28.82-13.563,4.521-3.956-1.13-11.3Z" transform="translate(-268.924 -176.092)"/><path class="f" d="M526.184,322.38c3.774,2.244,6.032,6.366,7.328,10.561a100.085,100.085,0,0,1,4.3,23.912l1.369,24.3,16.954,64.422c-14.693,12.432-23.169,9.607-42.948-.565s-22.039,3.391-22.039,3.391-1.7-.565,0-2.26,0,0-1.7-1.7,0,0,.565-1.7,0-.565-.565-1.13,2.26-5.651,2.26-5.651l-4.521-42.383-5.651-59.9c6.781-8.477,25.995-15.823,25.995-15.823l17.518,12.432c5.651,2.26,1.13-6.781,1.13-6.781Z" transform="translate(-259.929 -181.773)"/><path class="d" d="M467.363,391.226l-2.26,33.906,28.82,41.253c0,9.607,5.086,11.867,5.086,11.867a74.706,74.706,0,0,0,5.086-9.607c2.825-6.216-1.7-11.3-1.7-11.3l-19.779-41.818,8.477-20.909Z" transform="translate(-255.076 -203.433)"/><path class="f" d="M477.208,340.223c-9.607,3.391-11.3,40.123-11.3,40.123,11.3-6.216,24.865,3.956,24.865,3.956s2.825-9.607,6.216-22.039a21.6,21.6,0,0,0-4.521-20.344S486.815,336.832,477.208,340.223Z" transform="translate(-255.313 -188.031)"/><path class="e" d="M508.481,282.157c2.23-1.784,5.273,1.459,5.273,1.459l1.784-16.057s11.151,1.338,18.287-.446,8.252,6.467,8.252,6.467a57.271,57.271,0,0,0,.223-10.036c-.446-4.014-6.244-8.029-16.5-10.7s-15.611,8.921-15.611,8.921C503.049,265.329,506.251,283.942,508.481,282.157Z" transform="translate(-267.09 -162.46)"/><path class="a" d="M854.386,419.43a1.428,1.428,0,0,0,1.455-1.154L894.805,206.2a1.41,1.41,0,0,0-1.37-1.664l-177.27-2.065h-.016a1.416,1.416,0,0,0-1.376,1.1l-45.933,205.2a1.409,1.409,0,0,0,1.307,1.715Z" transform="translate(-315.213 -147.707)"/><path class="a" d="M712.248,529.535a.7.7,0,0,0-.685.545l-1.637,7.017a.705.705,0,0,0,.636.863l92.488,6.573a.711.711,0,0,0,.742-.568l1.574-8.118a.7.7,0,0,0-.65-.838l-92.425-5.473Z" transform="translate(-327.348 -244.264)"/><path class="a" d="M822.886,580.35a.707.707,0,0,0,.74-.534l2-8.135a.706.706,0,0,0-.636-.872l-118.111-8.26a.7.7,0,0,0-.725.5l-2.083,7.03a.7.7,0,0,0,.619.9Z" transform="translate(-325.617 -254.01)"/><path class="a" d="M813.886,617.35a.7.7,0,0,0,.741-.534l2-8.135a.706.706,0,0,0-.636-.872l-118.111-8.26a.7.7,0,0,0-.725.5l-2.083,7.03a.7.7,0,0,0,.619.9Z" transform="translate(-322.96 -264.933)"/><path class="f" d="M756.091,678.038a.7.7,0,0,0,.75-.531l4.238-16.951a.705.705,0,0,0-.625-.874l-72.533-6.1a.718.718,0,0,0-.747.549L683.559,670.4a.706.706,0,0,0,.622.855Z" transform="translate(-319.564 -280.885)"/></g></svg>