<svg xmlns="http://www.w3.org/2000/svg" width="112.182" height="98.606" viewBox="0 0 112.182 98.606"><defs><style>.a{fill:#fff;}</style></defs><g transform="translate(0 -30.978)"><path class="a" d="M54.936,76.785a3.3,3.3,0,0,0,2.311,0l41.574-15.59V97.137a13.011,13.011,0,0,1,6.574,0V58.729l4.661-1.666a3.292,3.292,0,0,0,0-6.157L57.247,31.185a3.328,3.328,0,0,0-2.311,0L2.126,50.907a3.292,3.292,0,0,0,0,6.157Z" transform="translate(0 0)"/><path class="a" d="M430.836,360.972c-5.62,0-9.861,7.065-9.861,16.435v6.574a3.285,3.285,0,0,0,3.287,3.287H437.41a3.285,3.285,0,0,0,3.287-3.287v-6.574C440.7,368.037,436.456,360.972,430.836,360.972Z" transform="translate(-328.727 -257.683)"/><path class="a" d="M161.124,215.859,130.59,227.31a9.879,9.879,0,0,1-6.9.006L93.13,215.859a62.5,62.5,0,0,0-2.16,18.651,3.291,3.291,0,0,0,4.5,3.053,48,48,0,0,1,15.218-3.053c6.936,0,14.313,5.8,14.387,5.858a3.3,3.3,0,0,0,4.1,0c2.035-1.631,8.587-5.855,14.38-5.855a48,48,0,0,1,15.218,3.053,3.291,3.291,0,0,0,4.5-3.053A62.963,62.963,0,0,0,161.124,215.859Z" transform="translate(-71.035 -144.368)"/></g></svg>