<svg xmlns="http://www.w3.org/2000/svg" viewBox="0 0 67.97 70.77"><defs><style>.cls-1{fill:#546171;}.cls-2{fill:#353d47;}.cls-3{fill:#48525e;}.cls-4{fill:#e36f00;}.cls-5{fill:#fd7d00;}.cls-6{fill:#e56700;}.cls-7{fill:#ff9545;}.cls-8{fill:#ffdc4a;}</style></defs><title>Asset 3</title><g id="Layer_2" data-name="Layer 2"><g id="layer"><path class="cls-1" d="M30.38,38.11,7.79,51.39a.91.91,0,0,1-.82,0l-.8-.54a2.32,2.32,0,0,1-.42-1.66L29.16,36.84l1.63-.39C30.79,37.22,30.61,38,30.38,38.11Z"/><path class="cls-2" d="M5.75,49.19a2.39,2.39,0,0,0,.41,1.66l.81.54a.85.85,0,0,0,.33.09l.08-1.27Z"/><polygon class="cls-3" points="30.79 36.45 7.38 50.22 5.75 49.19 29.16 35.43 30.79 36.45"/><path class="cls-1" d="M27.32,7.8c0,8,.1,28.64.18,28.69l1.43.84a.4.4,0,0,0,.37,0l1.49-.88V5.76Z"/><path class="cls-2" d="M27.32,7.8c0,8,.1,28.64.18,28.69l1.43.84a.4.4,0,0,0,.13,0V6.77Z"/><path class="cls-3" d="M11.29,17.22c0,2.68.07,5.13.12,5.16l1.43.84a.4.4,0,0,0,.37,0l15.85-9.28s0-3.85,0-7.16Z"/><path class="cls-1" d="M9.44,18.3c0,8,.1,28.65.18,28.7l1.43.84a.4.4,0,0,0,.37,0L12.91,47V16.26Z"/><path class="cls-2" d="M9.44,18.3c0,8,.1,28.65.18,28.7l1.43.84a.25.25,0,0,0,.13,0V17.28Z"/><polygon class="cls-1" points="65.65 22.04 49.63 31.42 47.83 30.36 63.85 20.98 65.65 22.04"/><path class="cls-1" d="M62.89,57.4,40.3,70.67a.87.87,0,0,1-.83,0l-.8-.54c-.23-.13-.41-.79-.41-1.66L61.67,56.13l1.63-.39A2.61,2.61,0,0,1,62.89,57.4Z"/><path class="cls-2" d="M38.26,68.47c0,.87.18,1.53.41,1.66l.8.54a.78.78,0,0,0,.34.09l.08-1.26Z"/><polygon class="cls-3" points="63.3 55.74 39.89 69.5 38.26 68.47 61.67 54.71 63.3 55.74"/><path class="cls-1" d="M59.83,27.08c0,8,.09,28.65.18,28.7l1.42.83a.42.42,0,0,0,.38,0l1.49-.87V25Z"/><path class="cls-2" d="M59.83,27.08c0,8,.09,28.65.18,28.7l1.42.83.14,0V26.06Z"/><path class="cls-4" d="M43.8,36.5c0,2.68.07,5.14.12,5.17l1.43.83a.4.4,0,0,0,.37,0l15.85-9.28s0-3.85,0-7.16Z"/><path class="cls-1" d="M42,37.59c0,8,.09,28.65.18,28.7l1.42.83a.42.42,0,0,0,.38,0l1.49-.87V35.55Z"/><path class="cls-2" d="M42,37.59c0,8,.09,28.65.18,28.7l1.42.83.14,0V36.57Z"/><path class="cls-5" d="M67.37,22.72,34.65,42a1.33,1.33,0,0,1-1.2,0L.6,22.34A3.4,3.4,0,0,1,0,19.93L33.91,2.05,68,20.31A3.7,3.7,0,0,1,67.37,22.72Z"/><path class="cls-6" d="M47.23,9.22,33.91,2.05,0,19.93a3.4,3.4,0,0,0,.6,2.41L33.45,42a1.27,1.27,0,0,0,.49.13l.11-1.83Z"/><polygon class="cls-7" points="67.97 20.31 34.05 40.25 0 19.93 33.91 0 67.97 20.31"/><polygon class="cls-8" points="67.97 20.31 34.05 40.25 0 19.93 33.94 39.05 67.97 20.31"/></g></g></svg>