<svg xmlns="http://www.w3.org/2000/svg" viewBox="0 0 190.05 189.73"><defs><style>.cls-1{fill:#4a4342;}.cls-2{fill:#5bbe8b;}.cls-3{fill:#eff1f0;}.cls-4{fill:#433f3e;}</style></defs><title>correct</title><g id="Layer_2" data-name="Layer 2"><g id="Layer_1-2" data-name="Layer 1"><path class="cls-1" d="M32,158.74C16.2,144.49,5.83,127.21,1.61,106.16-7.8,59.24,25.2,10.21,72.29,1.75c37.32-6.7,67.23,6,90.83,35,0,.65.3,1.06,1,1.09l0-.06a1.42,1.42,0,0,0,1.1,1.49v0c-.06.77.18,1.35,1,1.52v0c-.07.71.12,1.19,1,1.08l0,0c-.5,1.88.94,3.09,1.68,4.48,13.47,25.27,15,51.18,4.39,77.81C154.55,170.79,98.35,193,52.78,171.74c-6.18-2.88-11.46-7.2-17.67-10l0,0c0-.74-.32-1.07-1-1l0,0c0-.74-.36-1-1.06-1l.05,0A1.17,1.17,0,0,0,32,158.74ZM10,115.08a32.67,32.67,0,0,0,1.06,4.31c22.32,58,95.9,73.42,139.39,29.23a83.8,83.8,0,0,0,8.95-106.76c-10.47-14.92-23.95-26.06-41.86-31.11-1.1-1.48-2.84-1.56-4.4-2-37.25-10.73-78,6-96.59,40C5,69.79,2.36,92,10,115.08Z"/><path class="cls-2" d="M35.11,161.79c6.21,2.75,11.49,7.07,17.67,10,45.57,21.23,101.77-1,120.41-47.65,10.63-26.63,9.08-52.54-4.39-77.81-.74-1.39-2.18-2.6-1.68-4.48,3.33,1,4.68,4.13,6.3,6.64,21,32.41,22.52,66,2.34,98.76-19,30.94-48.23,44.81-84.58,42.23-20.43-1.45-38.06-10-53.11-23.82C36.9,164.53,35.23,163.73,35.11,161.79Z"/><path class="cls-2" d="M164.12,37.87c-.7,0-1-.44-1-1.09C163.75,36.87,164.17,37.16,164.12,37.87Z"/><path class="cls-2" d="M165.18,39.3a1.42,1.42,0,0,1-1.1-1.49A1.22,1.22,0,0,1,165.18,39.3Z"/><path class="cls-2" d="M166.19,40.79c-.84-.17-1.08-.75-1-1.52C166,39.44,166.45,39.88,166.19,40.79Z"/><path class="cls-2" d="M167.15,41.84c-.85.11-1-.37-1-1.08C167,40.63,167.33,41,167.15,41.84Z"/><path class="cls-2" d="M32,158.74a1.17,1.17,0,0,1,1.13,1.12C32.35,159.9,32.11,159.38,32,158.74Z"/><path class="cls-2" d="M33.08,159.83c.7,0,1.09.28,1.06,1A.93.93,0,0,1,33.08,159.83Z"/><path class="cls-2" d="M34.1,160.81c.73-.05,1.09.28,1,1C34.45,161.85,34.09,161.53,34.1,160.81Z"/><path class="cls-2" d="M117.53,10.75c17.91,5.05,31.39,16.19,41.86,31.11a83.8,83.8,0,0,1-8.95,106.76C107,192.81,33.37,177.39,11.05,119.39A32.67,32.67,0,0,1,10,115.08c0-2.32.08-4.65-.07-7C6,49.39,53.08,4,111.07,10.54,113.15,10.77,115.33,13.11,117.53,10.75ZM78.36,140.83c1.85,0,2.66-1.71,3.78-2.83q29.67-29.58,59.25-59.24c3.16-3.16,8.49-6.32,8.68-9.71.22-4-5.86-6.56-8.72-10.15s-4.66-2.63-7.36.09C116.6,76.55,99,93.93,81.65,111.52c-2.65,2.68-4.05,2.62-6.67-.09-9.71-10-19.77-19.74-29.57-29.7-2.06-2.09-3.41-2.61-5.55-.16A107.32,107.32,0,0,1,31.4,90c-1.9,1.74-1.92,2.85,0,4.75,14.76,14.6,29.41,29.33,44.1,44C76.3,139.6,77,140.67,78.36,140.83Z"/><path class="cls-3" d="M117.53,10.75c-2.2,2.36-4.38,0-6.46-.21C53.08,4,6,49.39,9.92,108.12c.15,2.31.05,4.64.07,7C2.36,92,5,69.79,16.54,48.72,35.1,14.7,75.88-2,113.13,8.74,114.69,9.19,116.43,9.27,117.53,10.75Z"/><path class="cls-4" d="M78.36,140.83c-1.41-.16-2.06-1.23-2.86-2-14.69-14.68-29.34-29.41-44.1-44-1.92-1.9-1.9-3,0-4.75a107.32,107.32,0,0,0,8.46-8.47c2.14-2.45,3.49-1.93,5.55.16,9.8,10,19.86,19.66,29.57,29.7,2.62,2.71,4,2.77,6.67.09C99,93.93,116.6,76.55,134,59c2.7-2.72,4.6-3.56,7.36-.09s8.94,6.2,8.72,10.15c-.19,3.39-5.52,6.55-8.68,9.71Q111.8,108.42,82.14,138C81,139.12,80.21,140.81,78.36,140.83Z"/></g></g></svg>