<svg xmlns="http://www.w3.org/2000/svg" viewBox="0 0 433.88 433.88"><defs><style>.cls-1{fill:#56bcbf;}.cls-2{fill:#44403e;}.cls-3{fill:#f47747;}.cls-4{fill:#f6b968;}.cls-5{fill:#eeaa59;}.cls-6{fill:#33302f;}.cls-7{fill:#22201f;}.cls-8{fill:#ffcc90;}.cls-9{fill:#ffe0bc;}.cls-10{fill:#c1e4ea;}.cls-11{fill:#2a7b6d;}.cls-12{fill:#f2ebec;}.cls-13{fill:#a83a48;}.cls-14{fill:#702730;}</style></defs><title>payment-successful</title><g id="Layer_2" data-name="Layer 2"><g id="borrow_money" data-name="borrow money"><path class="cls-1" d="M433.88,216.94c0,119.81-97.13,216.94-216.94,216.94S0,336.75,0,216.94,97.13,0,216.94,0,433.88,97.13,433.88,216.94Z"/><path class="cls-2" d="M347.89,175.15l82.35,2.41c-7.9-42.29-27.43-80.24-56-110H347.89Z"/><path class="cls-3" d="M122.66,272.62l-120.79-27A216.07,216.07,0,0,0,46.38,351l54,19.18Z"/><path class="cls-4" d="M209.82,167.25c-.38,3.86,3.15,7.38,7.88,7.85h0c4.73.46,8.87-2.29,9.26-6.16L233,107.55c.38-3.87-3.15-7.39-7.88-7.85h0c-4.73-.47-8.88,2.28-9.26,6.15Z"/><path class="cls-5" d="M210.07,167.44l0-64c.2-2.07,7.61-4.51,9.49-5.62l-5.77,70.62c-.08.86-1.12,4-.94,4.82A6.6,6.6,0,0,1,210.07,167.44Z"/><path class="cls-4" d="M193.61,176.92c-.22,3.88,3.44,7.26,8.19,7.53h0c4.75.28,8.78-2.64,9-6.52l4-62.51c.23-3.88-3.79-6.33-8.54-6.61h0c-4.75-.28-8.78,2.64-9,6.52Z"/><path class="cls-5" d="M193.63,176.66l3.46-63.13c.2-2.07,4.13-2.07,6-3.18L196.2,180a8,8,0,0,0,.19,2.49A6.65,6.65,0,0,1,193.63,176.66Z"/><path class="cls-4" d="M176.28,178.35c-.23,3.88,3.43,7.26,8.18,7.54h0c4.75.27,8.79-2.65,9-6.53l3.6-61.58c.24-3.89-3.43-7.26-8.18-7.54h0c-4.74-.27-8.78,2.65-9,6.53Z"/><path class="cls-6" d="M380.14,160.58a5.36,5.36,0,0,1,2.12-1.2l.3-5.09a1.9,1.9,0,1,1,3.79.22l-.3,5.08a5.45,5.45,0,0,1,1.53,9,5.47,5.47,0,1,1-7.44-8Z"/><path class="cls-6" d="M398.47,159.13l.3-5.1a1.9,1.9,0,0,1,3.79.23l-.3,5.08a5.46,5.46,0,1,1-5.92,1A5.4,5.4,0,0,1,398.47,159.13Z"/><path class="cls-6" d="M414.9,158.81l.3-5.09a1.9,1.9,0,0,1,3.79.22l-.3,5.08a5.64,5.64,0,0,1,1.82,1.28,5.55,5.55,0,1,1-5.61-1.49Z"/><path class="cls-7" d="M403.41,161.21a5.41,5.41,0,1,1-7.64-.28A5.41,5.41,0,0,1,403.41,161.21Z"/><path class="cls-7" d="M419.71,161a5.41,5.41,0,1,1-7.64-.28A5.41,5.41,0,0,1,419.71,161Z"/><path class="cls-7" d="M387.25,161.41a5.41,5.41,0,1,1-7.64-.28A5.41,5.41,0,0,1,387.25,161.41Z"/><path class="cls-8" d="M234.33,80.33c-4.8,1.69-61.12,32.06-62.68,40.18-1.33,6.9-.83,49.78-.47,61.58,0,.37,0,1.48,0,1.48,0,4.68,4.29,8.47,9.6,8.47s9.6-3.79,9.6-8.47V134.31a8.43,8.43,0,0,1,1.6-3.16c3.27-2.81,30.66-15.65,43.79-16.52l16.34-18.2L234.92,80.21A3.31,3.31,0,0,0,234.33,80.33Z"/><path class="cls-9" d="M177.69,184.57a7.48,7.48,0,0,1-2.94.65h0a7.83,7.83,0,0,1-3-.6c-.19-4-.5-10,.54-12.29a1.88,1.88,0,0,1,1.8-1.34h0a0,0,0,0,0,0,0,0,0,0,0,0,0,0h0a2.08,2.08,0,0,1,1.93,1.3C177.28,174.59,177.51,180.57,177.69,184.57Z"/><path class="cls-9" d="M173.31,118.66a.67.67,0,0,0,.2.9l3.42,2.33a.61.61,0,0,0,.87-.16h0a.65.65,0,0,0-.21-.89l-3.41-2.34a.61.61,0,0,0-.87.16Z"/><path class="cls-9" d="M171.93,120.85a.68.68,0,0,0,.2.9l3.42,2.34a.61.61,0,0,0,.87-.16h0a.67.67,0,0,0-.21-.9l-3.41-2.33a.61.61,0,0,0-.87.15Z"/><rect class="cls-10" x="162.73" y="96.27" width="82.92" height="182.01" transform="matrix(0.18, -0.98, 0.98, 0.18, -16.48, 354.81)"/><path class="cls-11" d="M279.86,236.76,116,207.07l12.55-69.28,163.88,29.69ZM123.33,202l151.43,27.44,10.3-56.84L133.63,145.13Z"/><path class="cls-11" d="M163.08,179.82a10.64,10.64,0,1,1-8.58-12.36A10.65,10.65,0,0,1,163.08,179.82Z"/><path class="cls-11" d="M266.25,198.52a10.64,10.64,0,1,1-8.57-12.37A10.63,10.63,0,0,1,266.25,198.52Z"/><path class="cls-11" d="M228.63,191.7a24.83,24.83,0,1,1-20-28.86A24.82,24.82,0,0,1,228.63,191.7Z"/><path class="cls-8" d="M234.92,80.21l.85,34.42c2.72-.18,4.84.14,6,1.18,8.8,8,7.84,14.48,1.51,24.66-3.69,5.94-8.7,11.81-14.69,23-13.21,24.7-4.22,25.64.38,28.57,8.28,5.27,22.09-25.43,33.51-33.88,15.45-11.42,35.95-25.59,35.95-25.59h49.47V80.33S244.69,78.72,234.92,80.21Z"/><path class="cls-9" d="M234.93,187.28a28.78,28.78,0,0,1-5.1-3.13h0l0,0,0,0h0a28.7,28.7,0,0,1-4.34-4.12c2.43-3.18,6-8,9.24-8.41a5,5,0,0,1,3.77,1.22h0s0,0,0,0h0a5,5,0,0,1,2.16,3.33C241.08,179.4,237.37,184.1,234.93,187.28Z"/><path class="cls-9" d="M244.31,153.29c-.19.29.14.83.75,1.23l7,4.51c.6.39,1.24.47,1.43.19h0c.19-.29-.15-.84-.76-1.23l-7-4.52c-.61-.39-1.25-.47-1.44-.18Z"/><path class="cls-9" d="M242.9,155.46c-.19.3.15.85.75,1.24l7,4.51c.61.39,1.25.48,1.44.19h0c.18-.29-.15-.85-.76-1.24l-7-4.51c-.6-.39-1.25-.48-1.43-.19Z"/><rect class="cls-12" x="320.79" y="70.4" width="27.09" height="82.57"/><path class="cls-4" d="M236.53,312.45a7.15,7.15,0,0,1-9.81,2.4h0a7.14,7.14,0,0,1-2.4-9.82l14.08-23.2a7.14,7.14,0,0,1,9.81-2.41h0a7.15,7.15,0,0,1,2.4,9.81Z"/><path class="cls-4" d="M207.28,326.65c-3.63,1.54-17,3.67-18.55,0l-3.16-3.37c-1.54-3.63-6.51-15.39-3.27-13.14,16.49,11.44,44.43-7.25,44.43-7.25a7.14,7.14,0,0,1,9.35,3.8h0a7.13,7.13,0,0,1-3.79,9.36Z"/><path class="cls-5" d="M215.26,320.32l23.52-13a7.05,7.05,0,0,0,2-1.68,6.62,6.62,0,0,0,1.76-2.28l8.27-20.94c.57-1.19-11.68,19-11.68,19l-36.21,22.27A41.07,41.07,0,0,0,215.26,320.32Z"/><path class="cls-4" d="M254.1,309.74a7.13,7.13,0,0,1-9.45,3.54h0a7.13,7.13,0,0,1-3.55-9.46l11.23-24.71a7.14,7.14,0,0,1,9.45-3.55h0a7.14,7.14,0,0,1,3.56,9.46Z"/><path class="cls-4" d="M226.74,327.31c-3.43,2-16.46,5.65-18.41,2.23l-3.55-3c-1.95-3.43,1.48-4.32,4.91-6.29l33.55-18.83a7.15,7.15,0,0,1,9.75,2.67h0a7.14,7.14,0,0,1-2.67,9.74Z"/><path class="cls-5" d="M227,321.08l23.53-13a7.39,7.39,0,0,0,2-1.68,7.18,7.18,0,0,0,1.77-2.29l11.29-23.72a6.61,6.61,0,0,0,.58-3.63l-15.29,25.46L214.63,324.5A41,41,0,0,0,227,321.08Z"/><path class="cls-4" d="M266.47,309.87a7.15,7.15,0,0,1-9.46,3.55h0a7.15,7.15,0,0,1-3.55-9.46l11.23-24.71a7.13,7.13,0,0,1,9.46-3.55h0a7.14,7.14,0,0,1,3.55,9.46Z"/><path class="cls-4" d="M239.11,327.44c-3.43,2-16.46,5.66-18.42,2.23l-3.54-3c-2-3.42,1.48-4.33,4.9-6.28l33.55-18.83a7.13,7.13,0,0,1,9.74,2.66h0a7.15,7.15,0,0,1-2.65,9.75Z"/><path class="cls-8" d="M259.78,329.5c-3.76,3.1-9.79,2-13.47-2.48h0a9.11,9.11,0,0,1,1-13.15l31.3-24c4.68-3.11,11-5.25,14.19-1.13,4.12,5.33-.6,11-5.91,16Z"/><path class="cls-8" d="M247.27,313.87c-4,2-40.75,9-45.13,2.5-5.75-8.54-3.57-13.82,3.89-21.07,4.35-4.24,9.79-8.13,17.18-16.31,16.29-18,9.34-21.25,5.65-24.14-6.71-5.24-23.91,16.81-35.31,21.53-15.4,6.38-35.63,14-35.63,14l-35.26-8.32-9.51,44s83.43,22.11,87.83,21.69c4-.38,47.32-10.28,58.68-18.2L248.26,313A3.42,3.42,0,0,1,247.27,313.87Z"/><rect class="cls-12" x="87.4" y="302.89" width="76.77" height="25.19" transform="translate(-209.8 367.75) rotate(-77.12)"/><path class="cls-13" d="M87,349.26a5,5,0,0,0-1.56-1.65L86.58,343a1.77,1.77,0,1,0-3.44-.82L82,346.77a5.15,5.15,0,0,0-2,.65,5.09,5.09,0,1,0,7,1.84Z"/><path class="cls-13" d="M71.12,343l1.12-4.61a1.77,1.77,0,0,0-3.44-.83l-1.11,4.6a4.7,4.7,0,0,0-2,.65,5.11,5.11,0,1,0,5.38.19Z"/><path class="cls-13" d="M56.59,338.25l1.12-4.6a1.77,1.77,0,1,0-3.43-.84l-1.11,4.6a5,5,0,0,0-2,.64,5.16,5.16,0,1,0,5.39.2Z"/><path class="cls-14" d="M66.16,343.5A5,5,0,1,0,73,345.32,5,5,0,0,0,66.16,343.5Z"/><path class="cls-14" d="M51.72,338.9a5,5,0,1,0,6.88,1.83A5,5,0,0,0,51.72,338.9Z"/><path class="cls-14" d="M80.47,348.06a5,5,0,1,0,6.87,1.83A5,5,0,0,0,80.47,348.06Z"/><path class="cls-9" d="M229.63,264a22.2,22.2,0,0,0-3-3.52h0l0,0h0a21.83,21.83,0,0,0-3.68-2.81c-2.13,2.25-5.35,5.57-5.29,8.1a3.9,3.9,0,0,0,1.4,2.73h0s0,0,0,0l0,0h0a3.89,3.89,0,0,0,2.81,1.24C224.37,269.63,227.51,266.21,229.63,264Z"/><path class="cls-9" d="M292.05,297.7a8.77,8.77,0,0,0-1.78-2.29h0s0,0,0,0h0a9,9,0,0,0-2.45-1.6c-2.15,2.23-5.39,5.55-5.81,7.59a1.93,1.93,0,0,0,.62,2h0a0,0,0,0,0,0,0v0h0a2,2,0,0,0,2,.48C286.73,303.3,289.9,299.93,292.05,297.7Z"/><path class="cls-9" d="M203.63,276.11c.24-.21.8,0,1.24.51l5.18,5.73c.45.5.62,1.07.38,1.29h0c-.23.21-.79,0-1.24-.52L204,277.4c-.45-.49-.62-1.08-.38-1.29Z"/><path class="cls-9" d="M205.42,274.5c.24-.21.8,0,1.25.5l5.17,5.73c.45.5.62,1.08.39,1.29h0c-.24.22-.8,0-1.25-.51l-5.18-5.73c-.45-.49-.62-1.08-.38-1.28Z"/><path class="cls-9" d="M252.75,323.72c.27-.17.71,0,1,.45l3.14,4.82c.27.42.27.9,0,1.07h0c-.27.18-.71,0-1-.45l-3.14-4.82c-.28-.41-.27-.89,0-1.07Z"/><path class="cls-9" d="M254.79,322.44c.28-.17.72,0,1,.45l3.14,4.82c.27.42.27.89,0,1.06h0c-.27.18-.71,0-1-.45l-3.14-4.81c-.27-.43-.27-.9,0-1.07Z"/></g></g></svg>