<svg xmlns="http://www.w3.org/2000/svg" viewBox="0 0 78.51 82.11"><defs><style>.cls-1{fill:#4997e3;}.cls-2{fill:#3867dd;}.cls-3{fill:#e2d9c3;}.cls-4{fill:#353d47;}.cls-5{fill:#e36f00;}.cls-6{fill:#dd6400;}.cls-7{fill:#fff;}.cls-8{fill:#2a7ba8;}.cls-9{fill:#3282ba;}.cls-10{fill:#196c93;}.cls-11{fill:#f3f3f3;}.cls-12{fill:#ccc;}.cls-13{fill:#3892d0;}.cls-14{fill:#3290c6;}.cls-15{fill:#49b4f2;}.cls-16{fill:#a85823;}.cls-17{fill:#ba672b;}.cls-18{fill:#934413;}.cls-19{fill:#e9f3eb;}.cls-20{fill:#c4ccc5;}.cls-21{fill:#d07330;}.cls-22{fill:#c6692a;}.cls-23{fill:#f2873f;}.cls-24{fill:#ba3246;}.cls-25{fill:#a82a43;}.cls-26{fill:#931936;}.cls-27{fill:#c6324e;}.cls-28{fill:#d0384f;}.cls-29{fill:#f24969;}.cls-30{fill:#3269ba;}.cls-31{fill:#2a64a8;}.cls-32{fill:#195693;}.cls-33{fill:#3274c6;}.cls-34{fill:#3876d0;}.cls-35{fill:#4995f2;}.cls-36{fill:#eaeaea;}.cls-37{fill:#f9f9f9;}.cls-38{fill:#efefef;}</style></defs><title>Asset 2</title><g id="Layer_2" data-name="Layer 2"><g id="layer"><path class="cls-1" d="M0,49.2a1.18,1.18,0,0,1,.52-.94.35.35,0,0,1,.39,0h0L22.28,60.67v.44l-.69.91L.18,49.58A.4.4,0,0,1,0,49.2Z"/><path class="cls-2" d="M21.58,62,.18,49.58A.4.4,0,0,1,0,49.2a1.17,1.17,0,0,1,.12-.47L22,61.45Z"/><path class="cls-3" d="M21.38,61.63a1.18,1.18,0,0,1,.52-.94c.2-.12.37-.08.46.07l1.38,1.59L21.65,62h-.06C21.46,62,21.38,61.84,21.38,61.63Z"/><path class="cls-4" d="M22.45,62.16a1.24,1.24,0,0,1,.4-.84l.89,1Z"/><path class="cls-5" d="M2.47,47.93A1.21,1.21,0,0,1,3,47a.35.35,0,0,1,.39,0h0L25,59.51V60l-.69.93L2.65,48.31A.4.4,0,0,1,2.47,47.93Z"/><path class="cls-6" d="M24.27,60.88,2.65,48.31a.4.4,0,0,1-.18-.38,1.21,1.21,0,0,1,.12-.48L24.7,60.31Z"/><path class="cls-3" d="M24.06,60.49a1.22,1.22,0,0,1,.53-1c.2-.12.37-.08.46.07l1.4,1.61-2.11-.32h-.06A.37.37,0,0,1,24.06,60.49Z"/><path class="cls-4" d="M25.14,61a1.25,1.25,0,0,1,.41-.84l.9,1Z"/><path class="cls-7" d="M37.51,5.61l.33.19,3.85,25.68L57.27,44.24l3.6-2.16,0-28L41.69,3.51h0a2.72,2.72,0,0,0-2.39-.06L37.4,4.59C36.8,5,36.79,5.22,37.51,5.61Z"/><path class="cls-8" d="M42.12,7.91l-.23-5.39-2.28-.34-3.2,2S37.76,6,42.12,7.91Z"/><path class="cls-9" d="M36.87,35l1.08.59.84-.5-1.1-.64c-.72-.39-.71-.66-.11-1l1.9-1.13a2.69,2.69,0,0,1,2.39.06l.79.43.84-.5-1.08-.59a3.63,3.63,0,0,0-3.24-.07l-2.59,1.54C35.78,33.69,35.9,34.51,36.87,35Z"/><polygon class="cls-9" points="42.41 2.16 62.27 13.09 62.28 42.67 61.44 43.17 41.57 2.66 42.41 2.16"/><polygon class="cls-8" points="61.43 13.59 62.27 13.09 62.28 42.67 61.44 43.17 61.43 13.59"/><polygon class="cls-10" points="41.57 2.66 61.43 13.59 61.44 43.17 41.58 32.24 41.57 2.66"/><path class="cls-11" d="M37.51,5.61l.33.19,3.85,25.68L57.27,44.24l3.6-2.16,0-28L41.69,3.51h0a2.72,2.72,0,0,0-2.39-.06L37.4,4.59C36.8,5,36.79,5.22,37.51,5.61Z"/><polygon class="cls-12" points="56.98 16.38 57.27 44.24 60.87 42.08 60.89 14.1 56.98 16.38"/><polygon class="cls-9" points="37.7 4.96 57.56 15.89 57.56 45.47 56.73 45.97 50.47 33.2 36.86 5.46 37.7 4.96"/><polygon class="cls-8" points="56.72 16.39 57.56 15.89 57.56 45.47 56.73 45.97 56.72 16.39"/><polygon class="cls-13" points="36.86 5.46 56.72 16.39 56.73 45.97 36.87 35.04 36.86 5.46"/><path class="cls-14" d="M37.49,5.21l-1.44-.79V34h0a1.33,1.33,0,0,0,.81,1l.62.34Z"/><path class="cls-9" d="M36.87,5.46,38,6.05l.84-.49-1.1-.65c-.72-.38-.72-.66-.12-1l1.91-1.13a2.67,2.67,0,0,1,2.38.06l.8.43.84-.49-1.08-.59a3.63,3.63,0,0,0-3.24-.08L36.59,3.63C35.77,4.11,35.9,4.93,36.87,5.46Z"/><polygon class="cls-15" points="36.86 5.46 56.72 16.39 56.73 45.97 56.36 16.56 36.86 5.46"/><path class="cls-7" d="M31.37,9.34l.33.2,3.85,25.68L51.13,48l3.59-2.16,0-28L35.55,7.25h0a2.67,2.67,0,0,0-2.38-.06L31.25,8.32C30.65,8.68,30.65,9,31.37,9.34Z"/><path class="cls-16" d="M36,11.64l-.24-5.39-2.27-.34-3.21,2S31.61,9.69,36,11.64Z"/><path class="cls-17" d="M30.73,38.78l1.08.59.84-.5-1.1-.64c-.72-.39-.72-.66-.12-1l1.91-1.13a2.66,2.66,0,0,1,2.38.05l.8.44.84-.5-1.08-.59A3.66,3.66,0,0,0,33,35.4l-2.59,1.54C29.63,37.43,29.76,38.25,30.73,38.78Z"/><polygon class="cls-17" points="36.27 5.9 56.13 16.83 56.13 46.41 55.29 46.91 35.43 6.4 36.27 5.9"/><polygon class="cls-16" points="55.29 17.32 56.13 16.83 56.13 46.41 55.29 46.91 55.29 17.32"/><polygon class="cls-18" points="35.43 6.4 55.29 17.32 55.29 46.91 35.44 35.98 35.43 6.4"/><path class="cls-19" d="M31.37,9.34l.33.2,3.85,25.68L51.13,48l3.59-2.16,0-28L35.55,7.25h0a2.67,2.67,0,0,0-2.38-.06L31.25,8.32C30.65,8.68,30.65,9,31.37,9.34Z"/><polygon class="cls-20" points="50.84 20.12 51.13 47.98 54.72 45.82 54.74 17.83 50.84 20.12"/><polygon class="cls-17" points="31.56 8.7 51.41 19.63 51.42 49.21 50.58 49.71 44.32 36.94 30.72 9.2 31.56 8.7"/><polygon class="cls-16" points="50.58 20.12 51.41 19.63 51.42 49.21 50.58 49.71 50.58 20.12"/><polygon class="cls-21" points="30.72 9.2 50.58 20.12 50.58 49.71 30.73 38.78 30.72 9.2"/><path class="cls-22" d="M31.34,9l-1.43-.79V37.74h0a1.28,1.28,0,0,0,.81,1l.62.34Z"/><path class="cls-17" d="M30.72,9.2l1.09.59.84-.5-1.11-.64c-.71-.39-.71-.66-.11-1L33.34,6.5a2.67,2.67,0,0,1,2.38.06l.8.43.83-.5L36.27,5.9A3.64,3.64,0,0,0,33,5.82L30.45,7.36C29.63,7.85,29.75,8.67,30.72,9.2Z"/><polygon class="cls-23" points="30.72 9.2 50.58 20.12 50.58 49.71 50.21 20.3 30.72 9.2"/><path class="cls-24" d="M7,46.4l1-.6v-.94L7,45.46c-.68.39-.9.26-.9-.41V42.91A2.56,2.56,0,0,1,7.28,41L8,40.52v-.94l-1,.61a3.48,3.48,0,0,0-1.66,2.64v2.9C5.35,46.64,6.09,47,7,46.4Z"/><polygon class="cls-24" points="50.29 49.88 31.49 60.94 7.01 46.4 7.01 45.46 50.29 48.95 50.29 49.88"/><polygon class="cls-25" points="31.49 60 31.49 60.94 7.01 46.4 7.01 45.46 31.49 60"/><polygon class="cls-26" points="50.29 48.95 31.49 60 7.01 45.46 25.81 34.41 50.29 48.95"/><path class="cls-11" d="M49.33,44.23,26.38,34.88,8.17,41.49l0,4,21.39,13.3s.63,1,1.23.77L49.33,48.74Z"/><polygon class="cls-24" points="50.29 44.61 31.48 55.67 7.01 41.13 7.01 40.19 20.65 41.29 50.29 43.67 50.29 44.61"/><polygon class="cls-25" points="31.48 54.73 31.48 55.67 7.01 41.13 7.01 40.19 31.48 54.73"/><path class="cls-27" d="M30.27,61.13l-.11-3.55c0-2.06,2.35-3.46,2.35-3.46L8,39.58l-1,.61a3.48,3.48,0,0,0-1.66,2.64v2.9a1,1,0,0,0,.29.76C5.93,46.75,30.27,61.13,30.27,61.13Z"/><path class="cls-25" d="M30.21,57,5.42,42.33a2.23,2.23,0,0,0-.07.5v2.9a1,1,0,0,0,.29.76c.29.26,24.63,14.64,24.63,14.64l-.11-3.55A3.29,3.29,0,0,1,30.21,57Z"/><path class="cls-26" d="M5.36,45.82a1,1,0,0,0,.28.67c.29.26,24.63,14.64,24.63,14.64l0-.53C21.86,55.64,9.58,48.36,5.36,45.82Z"/><path class="cls-24" d="M31.49,60.94l1-.6v-1l-1.08.6c-.67.4-.89.27-.89-.41V57.45a2.58,2.58,0,0,1,1.21-1.94l.76-.45v-.94l-1,.61a3.48,3.48,0,0,0-1.66,2.64v2.9C29.83,61.18,30.57,61.48,31.49,60.94Z"/><polygon class="cls-28" points="50.29 43.67 31.48 54.73 7.01 40.19 25.81 29.14 50.29 43.67"/><polygon class="cls-29" points="50.29 43.67 31.48 54.73 7.01 40.19 31.63 54.23 50.29 43.67"/><path class="cls-30" d="M42.18,39.49,41.3,39v-.81l.92.52c.59.34.78.23.78-.36V34.62A2.21,2.21,0,0,0,42,33l-.65-.39v-.81l.88.52a3,3,0,0,1,1.43,2.28V38.9C43.61,39.69,43,40,42.18,39.49Z"/><polygon class="cls-30" points="4.79 42.51 21.03 52.05 42.18 39.49 42.18 38.67 4.78 41.7 4.79 42.51"/><polygon class="cls-31" points="21.03 51.24 21.03 52.05 42.18 39.49 42.18 38.67 21.03 51.24"/><polygon class="cls-32" points="4.78 41.7 21.03 51.24 42.18 38.67 25.93 29.13 4.78 41.7"/><path class="cls-12" d="M5.61,35.78l19.82-8.09L41.18,33.4l0,5.33L22.68,50.23s-.54.88-1.06.67l-16-9.38Z"/><polygon class="cls-30" points="4.78 36.11 21.03 45.65 42.18 33.08 42.18 32.27 30.39 33.23 4.78 35.3 4.78 36.11"/><polygon class="cls-31" points="21.03 44.84 21.03 45.65 42.18 33.08 42.18 32.27 21.03 44.84"/><path class="cls-33" d="M22.09,52.22l.09-4.91c0-1.78-2-3-2-3L41.3,31.75l.88.52a3,3,0,0,1,1.43,2.28V38.9a.87.87,0,0,1-.24.66C43.11,39.79,22.09,52.22,22.09,52.22Z"/><path class="cls-31" d="M22.13,46.84,43.55,34.12a2.33,2.33,0,0,1,.06.43V38.9a.87.87,0,0,1-.24.66c-.26.23-21.28,12.66-21.28,12.66l.09-4.91A2.42,2.42,0,0,0,22.13,46.84Z"/><path class="cls-32" d="M43.6,39a.8.8,0,0,1-.23.58c-.26.23-21.28,12.66-21.28,12.66v-.46C29.35,47.47,40,41.18,43.6,39Z"/><path class="cls-30" d="M21,52.06l-.88-.53v-.81l.93.52c.58.34.78.22.78-.36V47.19a2.24,2.24,0,0,0-1.05-1.68l-.65-.38v-.81l.88.52a3,3,0,0,1,1.43,2.28v4.35C22.47,52.26,21.82,52.52,21,52.06Z"/><polygon class="cls-34" points="4.78 35.3 21.03 44.84 42.18 32.27 25.93 22.73 4.78 35.3"/><polygon class="cls-35" points="4.78 35.3 21.03 44.84 42.18 32.27 20.91 44.41 4.78 35.3"/><path class="cls-7" d="M36.36,31.34a21.18,21.18,0,0,1-2-2.33L18.94,22.6,5.42,27.41v3L22.62,40.77l13.5-7.83h0A2.07,2.07,0,0,0,37,31.85,3.75,3.75,0,0,1,36.36,31.34Z"/><path class="cls-25" d="M34.11,30.18l3.81,1.65-.16,1,2.55-1.65-.13-.66-2-.91S36.91,28.24,34.11,30.18Z"/><polygon class="cls-26" points="37.92 31.83 23.96 39.93 5.78 29 20.67 23.74 37.92 31.83"/><path class="cls-25" d="M33.27,31.58l3.39,1.85.81-.61-.12-.66-2-.92S36.06,29.63,33.27,31.58Z"/><polygon class="cls-24" points="36.69 33.88 22.73 41.98 4.56 31.05 4.56 30.36 36.69 33.18 36.69 33.88"/><polygon class="cls-25" points="22.73 41.28 22.73 41.98 4.56 31.05 4.56 30.36 22.73 41.28"/><polygon class="cls-26" points="36.69 33.18 22.73 41.28 4.56 30.36 19.45 25.09 36.69 33.18"/><path class="cls-36" d="M35.83,29.77,18.94,22.6,5.42,27.41v3L22.62,40.77s10.52-6,12.1-7.12,2.9-2.48,3.25-1.79l1.7-.93C37.71,28.74,35.83,29.77,35.83,29.77Z"/><polygon class="cls-12" points="22.64 37.53 5.42 27.41 5.43 30.41 22.61 40.77 22.64 37.53"/><polygon class="cls-37" points="35.83 29.77 22.56 37.48 5.42 27.41 18.62 19.61 35.83 29.77"/><path class="cls-38" d="M38.67,29.27a4,4,0,0,1,.27-.87L21.72,18.24a3.1,3.1,0,0,0-.21,1.49C23.35,21.6,34.72,27.79,38.6,30A5.79,5.79,0,0,1,38.67,29.27Z"/><path class="cls-24" d="M40.73,30.13l-.28.11-.31.24v.19a1.8,1.8,0,0,1-.86,1.06l-.57.33-.14.08c-.5.29-.66.19-.66-.31h0l-.58.32v0h0a2,2,0,0,1-.86,1.14l-.56.33v.69l.76-.44a2.74,2.74,0,0,0,.93-1c.22.19.58.19,1-.06l.1-.05h0l.78-.46a2.64,2.64,0,0,0,1-1A2.46,2.46,0,0,0,40.73,30.13Z"/><polygon class="cls-7" points="34.44 30.58 22.64 37.53 5.5 27.47 22.67 36.65 34.44 30.58"/><path class="cls-7" d="M38.4,27.18a22.14,22.14,0,0,0-3-.51L21.94,16.74,19,2.62l2.56-1.53,17.72,9.4.33,15.66h0a2,2,0,0,1-.49,1.28A4.74,4.74,0,0,0,38.4,27.18Z"/><polygon class="cls-24" points="40.73 30.19 40.4 9.96 21.69 0 21.09 0.36 40.14 30.55 40.73 30.19"/><polygon class="cls-25" points="39.81 10.32 40.4 9.96 21.69 0 21.09 0.36 39.81 10.32"/><polygon class="cls-26" points="40.14 30.55 39.81 10.32 21.09 0.36 20.87 20.25 40.14 30.55"/><path class="cls-36" d="M36.79,27.54,21.94,16.74,19,2.62l2.56-1.53,17.72,9.4s.26,12.11.21,14.09c-.16,6.19.15,6.35.15,6.35A3.52,3.52,0,0,1,36.79,27.54Z"/><polygon class="cls-12" points="36.56 12.19 19.03 2.62 21.59 1.09 39.31 10.49 36.56 12.19"/><polygon class="cls-38" points="36.79 27.54 36.48 12.14 19.03 2.62 19.22 18.01 36.79 27.54"/><path class="cls-38" d="M36.78,27.26a5,5,0,0,0,1.73,3.28c-2.4-1.28-17.13-9.78-17.42-9.94A3.28,3.28,0,0,1,19.22,18L27,20.1Z"/><polygon class="cls-7" points="36.76 25.93 36.56 12.19 19.12 2.67 35.83 12.67 36.76 25.93"/><path class="cls-37" d="M35.59,29.91a4,4,0,0,1,2.92.63C36.69,28.49,22.08,20,21.79,19.88a3.24,3.24,0,0,0-3.17-.27l5.83,5.64Z"/><path class="cls-12" d="M37.51,29.33c-5-2.78-16.74-9.59-17-9.74a4.27,4.27,0,0,1-1.09-.83,3.58,3.58,0,0,0,1.69,1.84c.29.16,15,8.66,17.42,9.94A5.56,5.56,0,0,1,37.51,29.33Z"/><path class="cls-7" d="M57.75,70.49A23.48,23.48,0,0,1,55.59,68l-16.67-6.8L24.29,66.5l0,3.24L42.89,80.8,57.5,72.22h0A2.18,2.18,0,0,0,58.41,71,4.28,4.28,0,0,1,57.75,70.49Z"/><path class="cls-25" d="M55.32,69.26,59.44,71l-.18,1.08L62,70.28l-.14-.71-2.16-1S58.35,67.13,55.32,69.26Z"/><polygon class="cls-26" points="59.44 71.01 44.34 79.89 24.69 68.22 40.79 62.41 59.44 71.01"/><path class="cls-25" d="M54.41,70.78l3.67,2,.87-.67-.13-.71-2.16-1S57.43,68.65,54.41,70.78Z"/><polygon class="cls-24" points="58.11 73.24 43.01 82.11 23.36 70.44 23.36 69.69 58.11 72.48 58.11 73.24"/><polygon class="cls-25" points="43.01 81.36 43.01 82.11 23.36 70.44 23.36 69.69 43.01 81.36"/><polygon class="cls-26" points="58.11 72.48 43.01 81.36 23.36 69.69 39.46 63.88 58.11 72.48"/><path class="cls-36" d="M57.18,68.8,38.92,61.19,24.29,66.5l0,3.24L42.89,80.8S54.27,74.29,56,73s3.14-2.71,3.51-2l1.84-1C59.21,67.67,57.18,68.8,57.18,68.8Z"/><polygon class="cls-12" points="42.91 77.3 24.29 66.5 24.31 69.74 42.89 80.8 42.91 77.3"/><polygon class="cls-37" points="57.18 68.8 42.83 77.24 24.29 66.5 38.57 57.95 57.18 68.8"/><path class="cls-7" d="M76.79,58.51c-.27-.33-.54-.66-.8-1L59.32,49.37,44.69,54.68l0,3.24L63.29,69l13.5-7.93Z"/><polygon class="cls-26" points="76.41 58.95 61.19 50.59 45.09 56.4 64.74 68.07 76.41 61.2 76.41 58.95"/><polygon class="cls-24" points="78.51 61.42 63.41 70.29 43.76 58.62 43.76 57.87 58.6 48.65 78.51 60.66 78.51 61.42"/><polygon class="cls-25" points="63.41 69.54 63.41 70.29 43.76 58.62 43.76 57.87 63.41 69.54"/><polygon class="cls-26" points="78.51 60.66 62.62 70.01 43.09 58.41 60.79 50.23 78.51 60.66"/><path class="cls-36" d="M77.59,58.32l-18.27-9L44.69,54.68l0,3.24S56.2,69.66,61.33,70c1.81-2.59,3.61-2,7-3.94,2.69-1.52,6.61-3.82,9.22-5.36Z"/><path class="cls-37" d="M77.59,58.32s-7.18,3.61-14.19,6.3A4.91,4.91,0,0,0,60.18,69c-3.51-2-16.39-8.86-18.48-11a4.33,4.33,0,0,1,2.85-4.19C51.08,51.29,59,47.47,59,47.47Z"/><path class="cls-38" d="M60.25,68.24a4,4,0,0,1,.29-.94L41.92,56.44a3.24,3.24,0,0,0-.22,1.61c2,2,14.28,8.62,18.48,11A4.7,4.7,0,0,1,60.25,68.24Z"/><path class="cls-24" d="M63.26,69.62c-.55.33-.74.17-.74-.39h0l-.64.37v0h0a2.24,2.24,0,0,1-1,1.28l-.63.37-.14.08c-.54.32-.72.21-.72-.33h0l-.62.35v0h0a2.21,2.21,0,0,1-.93,1.24l-.6.36v.75l.82-.48a2.94,2.94,0,0,0,1-1.07c.24.21.64.2,1.09-.07l.1-.06h0l.85-.5a3,3,0,0,0,1-1.09,1,1,0,0,0,1.13-.08l.11-.07v-.75Z"/><path class="cls-37" d="M56.92,69a3.23,3.23,0,0,1,3.26.09C57.66,67.54,42.31,58.39,42,58.21A3.52,3.52,0,0,0,38.57,58l6.3,6Z"/><polygon class="cls-7" points="55.67 69.69 42.91 77.3 24.38 66.55 42.95 76.35 55.67 69.69"/><path class="cls-7" d="M61.11,48.71l15.36,9.52S70,61.57,63,64.25c-1.07.41-3.17,2.61-3,4.7l.17.09a4.91,4.91,0,0,1,3.22-4.42c7-2.69,14.19-6.3,14.19-6.3Z"/></g></g></svg>