<svg xmlns="http://www.w3.org/2000/svg" viewBox="0 0 90.23 84.97"><defs><style>.cls-1{fill:#454d58;}.cls-2{fill:#546171;}.cls-3{fill:#353d47;}.cls-4{fill:#38c7d6;}.cls-5{fill:#49d5ec;}</style></defs><title>Asset 1</title><g id="Layer_2" data-name="Layer 2"><g id="layer"><polygon class="cls-1" points="79.98 65.98 90.23 29.28 40.48 0 39.84 0 30.22 36.7 79.34 67.58 79.98 65.98"/><polygon class="cls-2" points="89.6 29.28 90.23 29.28 40.48 0 39.84 0 89.6 29.28"/><polygon class="cls-3" points="79.34 67.58 49.76 84.97 0 55.69 0 54.09 79.34 67.58"/><polygon class="cls-1" points="79.34 67.58 49.76 84.97 49.76 83.38 79.34 65.98 79.34 67.58"/><polygon class="cls-2" points="79.34 65.98 49.76 83.38 0 54.09 29.59 36.7 79.34 65.98"/><polygon class="cls-3" points="37.49 64.72 28.02 59.14 21.46 62.99 30.93 68.57 37.49 64.72"/><polygon class="cls-1" points="59.16 75.68 75.11 66.3 28.96 39.41 13.01 48.78 59.16 75.68"/><path class="cls-3" d="M29.75,43.13l-2.89-1.7,1.87-1.1L31.63,42Zm-1,.58L25.86,42,24,43.12l2.89,1.69Zm3.57,2.09-2.89-1.69-1.87,1.1,2.89,1.7Zm3.57,2.1L33,46.2l-1.88,1.1L34,49ZM39.45,50l-2.89-1.7-1.87,1.1,2.89,1.7ZM43,52.08l-2.89-1.7-1.88,1.11,2.9,1.69Zm3.56,2.09-2.89-1.69-1.87,1.1,2.89,1.69Zm3.57,2.09-2.89-1.69-1.87,1.1,2.89,1.7Zm3.57,2.1-2.89-1.7L49,57.76l2.89,1.7Zm3.56,2.09-2.89-1.7-1.87,1.1,2.89,1.7Zm3.57,2.09L58,60.84,56.08,62,59,63.64Zm3.56,2.09-2.89-1.69L59.65,64l2.89,1.69Zm6.21,3.64L65.09,65l-1.87,1.1,5.53,3.24Zm-7.12.79,2.9,1.7,1.87-1.1L65.38,68ZM59.94,67l2.89,1.69,1.87-1.1-2.89-1.69Zm-3.57-2.09,2.89,1.69,1.88-1.1-2.9-1.69Zm-3.56-2.1,2.89,1.7,1.87-1.1-2.89-1.7Zm-3.57-2.09,2.89,1.7L54,61.29l-2.89-1.7ZM45.67,58.6l2.9,1.7,1.87-1.1-2.89-1.7Zm-3.56-2.09L45,58.2l1.87-1.1L44,55.41Zm-3.57-2.09,2.89,1.69L43.31,55l-2.9-1.69ZM35,52.32,37.87,54l1.87-1.1-2.89-1.7Zm-3.57-2.09,2.89,1.7,1.87-1.1-2.89-1.7Zm-3.57-2.09,2.9,1.7,1.87-1.1L29.72,47Zm-6.2-3.64,5.53,3.24L29,46.64,23.51,43.4ZM58.82,69l5.2,3L65.89,71l-5.2-3Zm-3.57-2.09,2.89,1.69L60,67.52l-2.89-1.69Zm-3.56-2.09,2.89,1.69,1.87-1.1-2.89-1.69Zm-3.57-2.1L51,64.44l1.87-1.1L50,61.64Zm-3.57-2.09,2.9,1.7,1.87-1.1-2.89-1.7ZM41,58.56l2.89,1.7,1.87-1.1-2.89-1.7Zm-3.57-2.09,2.89,1.69,1.88-1.1L39.3,55.37Zm-3.56-2.09,2.89,1.69L38.62,55l-2.89-1.69Zm-3.57-2.1L33.18,54l1.87-1.1-2.89-1.7Zm-3.57-2.09,2.9,1.7,1.87-1.1-2.89-1.7Zm-7.39-4.33,6.72,3.94,1.87-1.1-6.71-3.94ZM53.64,68.74l8,4.71,1.87-1.1-8-4.71Zm-3.43-2,2.89,1.7L55,67.33l-2.89-1.7Zm-3.57-2.09,2.89,1.69,1.87-1.1-2.89-1.69Zm-3.57-2.09L46,64.24l1.87-1.1L45,61.45Zm-3.56-2.1,2.89,1.7,1.87-1.1-2.89-1.7Zm-3.57-2.09,2.89,1.7L40.71,59l-2.89-1.7Zm-3.56-2.09L35.27,58l1.87-1.1-2.89-1.7Zm-3.57-2.09,2.89,1.69,1.87-1.1-2.89-1.69Zm-3.57-2.09,2.9,1.69L30,52.68,27.12,51ZM17,47.24l7.59,4.45,1.87-1.1-7.59-4.45ZM56.37,73.11l2.89,1.7,1.88-1.1L58.25,72ZM52.81,71l2.89,1.69,1.87-1.1-2.89-1.69Zm-3.57-2.09,2.89,1.69L54,69.52l-2.9-1.7Zm-3.56-2.1,2.89,1.7,1.87-1.1-2.89-1.7ZM25.49,55,44.86,66.36l1.88-1.1L27.36,53.89ZM21.93,52.9l2.89,1.7,1.87-1.1L23.8,51.8Zm-3.57-2.09,2.89,1.7,1.87-1.11-2.89-1.69Zm-3.57-2.09,2.9,1.69,1.87-1.1-2.89-1.69ZM36,44.6l-2.89-1.7L31.25,44l2.89,1.7Zm3.23,1.89L36.35,44.8l-1.87,1.1,2.89,1.69Zm3.23,1.9-2.89-1.7-1.88,1.1,2.9,1.7Zm3.23,1.89-2.89-1.7-1.88,1.1,2.89,1.7Zm4.24,2.49-2.89-1.7-1.88,1.1,2.9,1.7Zm3.23,1.89L50.28,53l-1.88,1.1,2.89,1.69Zm3.23,1.9-2.9-1.7L51.63,56l2.89,1.7Zm3.22,1.89-2.89-1.7-1.87,1.1,2.89,1.7Zm4.24,2.49L61,59.24l-1.87,1.1L62,62Zm3.23,1.89L64.2,61.14l-1.87,1.1,2.89,1.69Zm3.23,1.9L67.43,63l-1.87,1.1,2.89,1.7Zm3.23,1.89-2.89-1.7L68.79,66l2.89,1.7Z"/><polygon class="cls-3" points="79.34 65.98 89.6 29.28 39.84 0 29.59 36.7 79.34 65.98"/><polygon class="cls-4" points="32.56 35.51 41.4 3.86 86.63 30.48 77.79 62.13 32.56 35.51"/><path class="cls-5" d="M35.89,23.55,41.4,3.86,74.87,23.55ZM83.06,43.28l2.78-10H33.17l-.61,2.21,13.2,7.77Z"/></g></g></svg>