<svg xmlns="http://www.w3.org/2000/svg" viewBox="0 0 189.28 189.73"><defs><style>.cls-1{fill:#4a4342;}.cls-2{fill:#ee6062;}.cls-3{fill:#eff1f0;}.cls-4{fill:#433f3e;}</style></defs><title>wrong</title><g id="Layer_2" data-name="Layer 2"><g id="Layer_1-2" data-name="Layer 1"><path class="cls-1" d="M32.32,159.13c-17-15.57-27.9-34.33-31.41-57.48-6.86-45.22,26-91.88,71-99.89,35.73-6.36,65.25,4.52,88.66,32.18,1.29,1.53,2.6,3,3.9,4.55.36,1,.5,2.18,1.89,2.35l0,0c-.28,1.69,1,2.74,1.72,4a86.87,86.87,0,0,1,12.12,43.74q.13,34.5-22.64,60.75c-23.62,27.32-63.94,37.79-97.75,25.26-9.44-3.5-17.72-8.88-26.17-14l.05,0A1.38,1.38,0,0,0,32.32,159.13ZM9.29,112c.51,2.33.69,4.8,1.6,7,5.73,13.68,13.83,25.6,25.22,35.39,31.7,27.26,81.61,25.95,111.61-3.21,27-26.21,34.42-63.45,18.59-97.07-9.47-20.13-24.6-34.82-45.93-42.45C107.2,5.23,93.11,4.2,79.06,6.3,40.69,12,13.62,38.61,6.84,76.76,4.74,88.58,5,100.5,9.29,112Z"/><path class="cls-2" d="M33.62,160.52c8.45,5.17,16.73,10.55,26.17,14,33.81,12.53,74.13,2.06,97.75-25.26Q180.28,123,180.18,88.56a86.87,86.87,0,0,0-12.12-43.74c-.73-1.26-2-2.31-1.72-4,8.86,7.85,13.91,18.16,17.74,29a90,90,0,0,1-42.44,109.41c-34,18.4-77.79,12.23-104.92-14.85C35.56,163.19,34.1,162.23,33.62,160.52Z"/><path class="cls-2" d="M166.37,40.84c-1.39-.17-1.53-1.35-1.89-2.35A2.54,2.54,0,0,1,166.37,40.84Z"/><path class="cls-2" d="M32.32,159.13a1.38,1.38,0,0,1,1.35,1.43A1.42,1.42,0,0,1,32.32,159.13Z"/><path class="cls-2" d="M120.38,11.63c21.33,7.63,36.46,22.32,45.93,42.45,15.83,33.62,8.38,70.86-18.59,97.07-30,29.16-79.91,30.47-111.61,3.21C24.72,144.57,16.62,132.65,10.89,119c-.91-2.16-1.09-4.63-1.6-7a60.65,60.65,0,0,0,.3-6.45C6.51,49.47,53.26,4.8,109,10.48,112.81,10.87,116.49,12.37,120.38,11.63ZM51.57,140.94c1.65,0,2.48-1.38,3.5-2.4C65.68,128,76.32,117.41,86.8,106.69c2.47-2.53,3.9-2.91,6.63-.06,10.36,10.8,21.11,21.22,31.55,32,2.54,2.61,4.39,3,6.87.12a51.65,51.65,0,0,1,6.69-6.7c3.27-2.65,3.13-4.56.08-7.51C128.08,114.32,118,103.7,107.38,93.57c-3-2.9-3.14-4.4-.12-7.33,10.65-10.29,20.91-21,31.56-31.3,2.92-2.82,3-4.61-.08-7.12a48.14,48.14,0,0,1-6.69-6.7c-2.43-3-4.11-3-6.9-.13-10.52,10.89-21.39,21.43-32,32.24-2.23,2.27-3.59,2.56-6,.13-8.71-9-17.63-17.69-26.49-26.5-2.82-2.81-5.43-7.41-8.62-7.88-3.84-.56-6.05,4.87-9,7.62-5.13,4.77-5,4.91.1,10Q58.5,72,73.85,87.35c1.36,1.37,3,2.37.57,4.71-10.4,10.06-20.54,20.39-30.8,30.59-5.6,5.56-5.61,5.53.22,11.29,1.65,1.63,3.19,3.38,4.81,5.05C49.46,139.82,50.18,140.78,51.57,140.94Z"/><path class="cls-3" d="M120.38,11.63c-3.89.74-7.57-.76-11.35-1.15C53.26,4.8,6.51,49.47,9.59,105.55a60.65,60.65,0,0,1-.3,6.45C5,100.5,4.74,88.58,6.84,76.76,13.62,38.61,40.69,12,79.06,6.3,93.11,4.2,107.2,5.23,120.38,11.63Z"/><path class="cls-4" d="M51.57,140.94c-1.39-.16-2.11-1.12-2.92-1.95-1.62-1.67-3.16-3.42-4.81-5.05-5.83-5.76-5.82-5.73-.22-11.29,10.26-10.2,20.4-20.53,30.8-30.59,2.42-2.34.79-3.34-.57-4.71Q58.54,72,43.18,56.65c-5.13-5.14-5.23-5.28-.1-10,3-2.75,5.17-8.18,9-7.62,3.19.47,5.8,5.07,8.62,7.88,8.86,8.81,17.78,17.55,26.49,26.5,2.37,2.43,3.73,2.14,6-.13,10.6-10.81,21.47-21.35,32-32.24,2.79-2.89,4.47-2.84,6.9.13a48.14,48.14,0,0,0,6.69,6.7c3.08,2.51,3,4.3.08,7.12-10.65,10.3-20.91,21-31.56,31.3-3,2.93-2.91,4.43.12,7.33,10.58,10.13,20.7,20.75,31.24,30.92,3,3,3.19,4.86-.08,7.51a51.65,51.65,0,0,0-6.69,6.7c-2.48,2.9-4.33,2.49-6.87-.12-10.44-10.73-21.19-21.15-31.55-32-2.73-2.85-4.16-2.47-6.63.06C76.32,117.41,65.68,128,55.07,138.54,54.05,139.56,53.22,141,51.57,140.94Z"/></g></g></svg>