<svg xmlns="http://www.w3.org/2000/svg" width="103.251" height="110.63" viewBox="0 0 103.251 110.63"><defs><style>.a{fill:#257f9b;}</style></defs><path class="a" d="M132.561,39.156c-4.829-6.438-15.606-8.217-29.706-4.959-.3-.725-.615-1.437-.937-2.13a7.372,7.372,0,0,0-8.228-11.819A15.046,15.046,0,0,0,83.6,16c-4.065,0-7.925,1.875-11.471,5.574A40.8,40.8,0,0,0,64.345,34.2c-14.1-3.258-24.877-1.479-29.705,4.959-5.492,7.321-2.35,19.273,8.382,32.159q-.878,1.054-1.7,2.113a7.37,7.37,0,0,0-7.294,12.2c-2.941,7.225-2.738,13.372.612,17.839,3.248,4.33,9.186,6.554,17.019,6.554a56.9,56.9,0,0,0,12.687-1.6,40.8,40.8,0,0,0,7.784,12.624c3.546,3.7,7.406,5.576,11.471,5.576s7.925-1.875,11.471-5.574a40.8,40.8,0,0,0,7.783-12.622q1.479.342,2.922.611a7.375,7.375,0,0,0,14.538.683c5.508-.748,9.726-2.892,12.246-6.255,5.492-7.321,2.351-19.273-8.381-32.159C134.911,58.429,138.053,46.477,132.561,39.156Zm-2.95,2.213c4.272,5.695,1.239,15.981-7.89,27.126A107.124,107.124,0,0,0,108.471,56.3a92.592,92.592,0,0,0-4.282-18.627c12.194-2.72,21.618-1.38,25.422,3.692Zm-29.017,62.687a95.185,95.185,0,0,1-12.7-4.537,130.727,130.727,0,0,0,11.624-6.78q2.429-1.588,4.768-3.271a84.889,84.889,0,0,1-3.687,14.587Zm-33.988,0a84.913,84.913,0,0,1-3.688-14.587q2.334,1.677,4.768,3.271a130.672,130.672,0,0,0,11.624,6.78,95.2,95.2,0,0,1-12.7,4.537Zm0-65.482a95.186,95.186,0,0,1,12.7,4.537,130.722,130.722,0,0,0-11.624,6.78q-2.429,1.588-4.768,3.271a84.888,84.888,0,0,1,3.689-14.587Zm3.1,51.079c-2.585-1.69-5.1-3.471-7.5-5.3a116.508,116.508,0,0,1,0-26.079c2.4-1.827,4.913-3.608,7.5-5.3A125.588,125.588,0,0,1,83.6,45.09a125.546,125.546,0,0,1,13.9,7.887c2.585,1.69,5.1,3.471,7.5,5.3a115.587,115.587,0,0,1,.732,13.04,115.573,115.573,0,0,1-.732,13.04c-2.4,1.827-4.913,3.608-7.5,5.3A125.59,125.59,0,0,1,83.6,97.54a125.546,125.546,0,0,1-13.9-7.887Zm-11.516-8.5A99.531,99.531,0,0,1,47.9,71.315a99.649,99.649,0,0,1,10.287-9.837c-.265,3.237-.4,6.529-.4,9.837s.137,6.6.4,9.836Zm42.407-42.577a84.915,84.915,0,0,1,3.688,14.587q-2.334-1.677-4.768-3.271a130.671,130.671,0,0,0-11.624-6.78,95.2,95.2,0,0,1,12.7-4.537Zm8.418,22.905A99.531,99.531,0,0,1,119.3,71.315a99.646,99.646,0,0,1-10.287,9.837c.265-3.237.4-6.529.4-9.837s-.137-6.6-.4-9.836Zm-8.817-34.416a3.688,3.688,0,1,1-3.688-3.688A3.688,3.688,0,0,1,100.195,27.063ZM83.6,19.688a11.153,11.153,0,0,1,7.092,2.846,7.371,7.371,0,0,0,8.088,11.544q.234.516.461,1.044A102.367,102.367,0,0,0,83.6,41a102.368,102.368,0,0,0-15.644-5.882C72.16,25.283,77.8,19.688,83.6,19.688ZM37.59,41.369c3.8-5.071,13.227-6.411,25.422-3.691A92.586,92.586,0,0,0,58.73,56.3,107.272,107.272,0,0,0,45.479,68.494C36.351,57.351,33.317,47.064,37.59,41.369Zm1.759,35.478a3.688,3.688,0,1,1-3.688,3.688A3.688,3.688,0,0,1,39.348,76.847ZM37.59,101.262c-2.986-3.983-2.028-9.357-.373-13.667A7.372,7.372,0,0,0,44.541,75.3q.459-.584.938-1.168A107.117,107.117,0,0,0,58.73,86.327a92.59,92.59,0,0,0,4.282,18.627C50.818,107.673,41.394,106.333,37.59,101.262ZM83.6,122.943c-5.8,0-11.441-5.6-15.644-15.433A102.334,102.334,0,0,0,83.6,101.627a102.394,102.394,0,0,0,15.644,5.882C95.041,117.348,89.4,122.943,83.6,122.943Zm29.5-11.063a3.688,3.688,0,1,1,3.688-3.688A3.688,3.688,0,0,1,113.1,111.88Zm16.509-10.618c-1.867,2.491-5.118,4.122-9.457,4.768a7.375,7.375,0,0,0-13.871-.643q-1.034-.2-2.093-.434a92.579,92.579,0,0,0,4.281-18.624,107.247,107.247,0,0,0,13.251-12.192c9.129,11.143,12.162,21.43,7.889,27.126Z" transform="translate(-31.965 -16)"/><path class="a" d="M206.751,192A14.751,14.751,0,1,0,221.5,206.751,14.751,14.751,0,0,0,206.751,192Zm0,25.814a11.063,11.063,0,1,1,11.063-11.063A11.063,11.063,0,0,1,206.751,217.814Z" transform="translate(-155.115 -151.435)"/></svg>