<svg height="512" viewBox="0 0 60 60" width="512" xmlns="http://www.w3.org/2000/svg"><g id="Page-1" fill="none" fill-rule="evenodd"><g id="090---Person-Speaking" fill="rgb(0,0,0)" fill-rule="nonzero" transform="translate(0 -1)"><path id="Shape" d="m14.081 34.149c-.4700026-.2898982-1.0860201-.1439522-1.376.326-.9400496 1.5520918-.9400496 3.4979082 0 5.05.1794485.3208266.5204516.5173326.8880112.5117242s.7024085-.2124268.8719852-.538579c.1695766-.3261522.1465375-.7190478-.0599964-1.0231452-.5414079-.9088107-.5414079-2.0411893 0-2.95.2902588-.4694816.1452422-1.0853544-.324-1.376z"/><path id="Shape" d="m11.6 30.2c-.2131583-.1582826-.4805113-.2253015-.7431279-.1862842-.2626167.0390174-.4989376.1808678-.6568721.3942842-2.92933523 3.9094806-2.92933523 9.2825194 0 13.192.2143593.2858125.5649147.4355548.9196153.3928204.3547005-.0427344.6596588-.2714532.8-.6000001.1403412-.3285468.0947441-.7070078-.1196153-.9928203-2.40400232-3.2016285-2.40400232-7.6063715 0-10.808.3259499-.440434.2367663-1.0611517-.2-1.392z"/><path id="Shape" d="m8.8 28.6c.21435937-.2858125.25995646-.6642735.11961527-.9928203-.14034118-.3285469-.44529947-.5572657-.80000002-.6000001s-.7052559.1070079-.91961525.3928204c-4.26666667 5.6888889-4.26666667 13.5111111 0 19.2.21435935.2858125.5649147.4355547.91961524.3928203s.65965882-.2714531.8-.6c.14034119-.3285469.09474411-.7070078-.11961524-.9928203-3.73333333-4.9777778-3.73333333-11.8222222 0-16.8z"/><path id="Shape" d="m4.2 49.6c.21435935.2858125.5649147.4355548.91961526.3928204.35470055-.0427344.65965884-.2714531.80000003-.6.14034118-.3285469.09474409-.7070079-.11961529-.9928204-5.06666667-6.7555556-5.06666667-16.0444444 0-22.8.21435938-.2858125.25995647-.6642735.11961528-.9928203-.14034118-.3285469-.44529947-.5572657-.80000002-.6000001-.35470056-.0427344-.70525591.1070079-.91961526.3928204-5.6 7.4666667-5.6 17.7333333 0 25.2z"/><path id="Shape" d="m56.492 28.718c1.615-2.185 3.446-4.659 3.505-8.886.0485908-2.3354227-.2376503-4.6657622-.85-6.92-.8235053-2.8159954-2.5361542-5.28989944-4.882-7.052-6.419-5.052-11.945-5.98-21.891-3.685-2.711.626-5.781 1.582-8 3.936-1.4433459 1.54362203-2.557303 3.36494527-3.274 5.353l-.136.363c-.916 2.416-1.964 5.415-1.964 7.173-.0100019 1.0669367.4648897 2.0807254 1.291 2.756.391.376.454.469.454.659-.0742958.9227549-.5307147 1.7725133-1.259 2.344l-.257.273c-2.418 2.609-3.323 3.7-3.222 4.8.1414272.7330507.6007331 1.3656036 1.254 1.727.2745628.1939403.5653014.3639003.869.508.318451.1339251.6116718.3212889.867.554.0455656.2334305.0201388.4751595-.073.694-.117.249-.239.463-.344.65-.3.538-.867 1.539 0 2.268.2310899.1834735.4942069.3224916.776.41-.2304359.3882505-.3404158.8361752-.316 1.287.0413239.3504307.2287185.667113.516.872.185.132.383.247.58.36.449.258.587.358.631.529.0487352.2733547.0249441.5547101-.069.816-.2784135.9847625-.2314154 2.033101.134 2.989.4593642 1.6172105 2.0899474 2.6049004 3.736 2.263 2.2548106-.5439454 4.4786965-1.208908 6.662-1.992 1.694 1.547 2.288 7.311 1.507 15.027-.0582676.5626881.1244807 1.1237332.5029752 1.5441556s.9173286.6608933 1.4830248.6618444h23.277c.57219.0005229 1.117593-.2423633 1.5-.668.3747797-.4165686.5547523-.9728475.495-1.53-.7334576-4.5809593-2.4050313-8.9610953-4.91-12.866-1.167-1.53-1.385-3.586-1.615-5.763-.039-.369-.078-.737-.122-1.105-.2816633-2.3841081.0766114-4.8002188 1.038-7 .5733681-1.1925427 1.2798643-2.3163614 2.106-3.35zm-4.349 15.653c.2152851.7694499.5352779 1.5056688.951 2.188-2.485 2.365-7.808 5.849-18.032 6.912.01-.6.013-1.211 0-1.818 9.295-1.073 14.418-4.534 17.081-7.282zm-17.42 14.629c.106-1.05.2-2.25.268-3.513 10.26-1.02 16.04-4.3 19.215-7.229 1.8801883 3.3325776 3.1641302 6.9678185 3.794 10.742zm17.823-27.729c-1.1040407 2.5259462-1.5151405 5.3004385-1.191 8.038.043.355.082.713.12 1.074.053.506.109 1.016.176 1.525-2.021 2.551-6.727 6.565-16.684 7.744-.0374311-2.3007045-.6353722-4.5575717-1.742-6.575l.539-.189c.611-.215 1.073-.378 1.3-.45 3.545-1.119 5.319-2.756 5.27-4.871-.0266522-.5462557-.4770946-.9755837-1.024-.976-.5519545.013101-.988854.4710397-.976 1.023.015.629-.469 1.843-3.872 2.916-.241.076-.725.245-1.364.471-.574.2-1.276.448-2.043.711h-.008c-2.2587472.8201233-4.5600908 1.5178036-6.894 2.09-.6615881.1306348-1.3043411-.2980162-1.438-.959-.2401845-.5972278-.2677239-1.2588785-.078-1.874.1738039-.574267.1955123-1.1838241.063-1.769-.2288029-.7717658-.7816771-1.4060201-1.515-1.738.174018-.2896089.3695694-.5657209.585-.826.2308399-.2782365.2935275-.6594034.1639549-.9969142s-.431227-.5788044-.7889549-.6310858c-.258-.038-.541-.094-.774-.148.113-.2.238-.429.359-.686.2756282-.601575.3567286-1.2741491.232-1.924-.2-1.083-1.2-1.592-1.921-1.962-.2023205-.0958682-.3974899-.2061522-.584-.33-.1506639-.1082526-.2952185-.2247643-.433-.349.7838291-1.1573936 1.678374-2.2358041 2.671-3.22l.241-.255c1.0909082-.9377785 1.7456087-2.2848185 1.809-3.722-.0261163-.8232718-.416227-1.5925042-1.065-2.1-.4303607-.2973773-.6851214-.7889155-.68-1.312 0-1.618 1.379-5.268 1.832-6.466l.143-.38c.623324-1.7339036 1.5930017-3.3228141 2.85-4.67 1.852-1.961 4.458-2.774 7-3.36 10.465-2.416 15.012-.78 20.206 3.31 2.0195521 1.49471034 3.4931856 3.6104896 4.195 6.023.5588293 2.0666697.8194637 4.2025919.774 6.343-.05 3.583-1.538 5.594-3.113 7.724-.9214171 1.1551118-1.7069126 2.4123742-2.341 3.747z"/><path id="Shape" d="m54 17c.0553075.0002649.1105278-.0044204.165-.014.5444092-.0908048.9123105-.6055085.822-1.15-1.077-6.457-7.851-9.836-13.987-9.836-.5522847 0-1 .44771525-1 1s.4477153 1 1 1c5.294 0 11.12 2.805 12.014 8.164.0801661.4821996.497182.835775.986.836z"/><circle id="Oval" cx="54" cy="20" r="1"/></g></g></svg>