<svg xmlns="http://www.w3.org/2000/svg" width="89.016" height="89.976" viewBox="0 0 89.016 89.976"><defs><style>.a{fill:#257f9b;}</style></defs><g transform="translate(0 0)"><g transform="translate(0 0)"><path class="a" d="M161.71,218.936H145.17a2.506,2.506,0,0,0-2.506,2.506V253.9a2.506,2.506,0,0,0,2.506,2.506h16.54a2.506,2.506,0,0,0,2.506-2.506V221.442A2.506,2.506,0,0,0,161.71,218.936ZM159.2,251.39H147.676V223.948H159.2Z" transform="translate(-108.928 -166.426)"/><path class="a" d="M298.195,136.911H281.529a2.506,2.506,0,0,0-2.506,2.506v52.127a2.506,2.506,0,0,0,2.506,2.506h16.666a2.506,2.506,0,0,0,2.506-2.506V139.417A2.506,2.506,0,0,0,298.195,136.911Zm-2.506,52.127H284.035V141.923h11.653Z" transform="translate(-212.582 -104.074)"/><path class="a" d="M24.954,269.613H8.288a2.506,2.506,0,0,0-2.506,2.506v20.3a2.506,2.506,0,0,0,2.506,2.506H24.954a2.506,2.506,0,0,0,2.506-2.506v-20.3A2.506,2.506,0,0,0,24.954,269.613Zm-2.506,20.3H10.794V274.625H22.448v15.287Z" transform="translate(-4.876 -204.948)"/><path class="a" d="M90.372,2.513a2.13,2.13,0,0,0-1.629-.877L65.938.007a2.513,2.513,0,0,0-.376,5.012L81.7,6.116,52.029,29.329,29.349,11.536a2.506,2.506,0,0,0-3.258.125L2.784,33.965a2.506,2.506,0,0,0-.125,3.509,2.256,2.256,0,0,0,1.88.877A2.506,2.506,0,0,0,6.293,37.6L27.971,16.8,50.4,34.466a2.506,2.506,0,0,0,3.133,0L85.611,9.5,84.358,25.068A2.631,2.631,0,0,0,86.739,27.7h.125a2.506,2.506,0,0,0,2.506-2.255L91,4.268A2.005,2.005,0,0,0,90.372,2.513Z" transform="translate(-2.003 0)"/></g></g></svg>