<svg xmlns="http://www.w3.org/2000/svg" width="106.303" height="106.303" viewBox="0 0 106.303 106.303"><defs><style>.a{fill:#257f9b;}</style></defs><path class="a" d="M120.532,51.434H108.838A22.991,22.991,0,0,1,88.516,39.241l-2.168-4.065a19.456,19.456,0,0,0-10.109-8.988v-3.1a7.087,7.087,0,1,0-14.174,0v3.1a19.457,19.457,0,0,0-10.109,8.988l-2.168,4.065A22.991,22.991,0,0,1,29.465,51.434H17.772A1.772,1.772,0,0,0,16,53.206v7.087a1.772,1.772,0,0,0,1.772,1.772H29.416l-5.8,15.945h-2.3a1.772,1.772,0,0,0-1.772,1.772,14.174,14.174,0,1,0,28.348,0,1.772,1.772,0,0,0-1.772-1.772h-2.3l-5.8-15.945H42.34a21.255,21.255,0,0,0,14-5.262L61,52.724a12.371,12.371,0,0,1,1.062-.828V98.853L59.2,104.586h-4.22a1.772,1.772,0,0,0-1.417.709l-4.784,6.378H40.8a1.772,1.772,0,0,0-1.772,1.772v7.087A1.772,1.772,0,0,0,40.8,122.3H97.5a1.772,1.772,0,0,0,1.772-1.772v-7.087a1.772,1.772,0,0,0-1.772-1.772H89.526l-4.784-6.378a1.772,1.772,0,0,0-1.417-.709h-4.22l-2.867-5.734V51.9a12.371,12.371,0,0,1,1.062.828h0l4.663,4.08a21.254,21.254,0,0,0,14,5.26h4.322l-5.8,15.945h-2.3a1.772,1.772,0,0,0-1.772,1.772,14.174,14.174,0,1,0,28.348,0,1.772,1.772,0,0,0-1.772-1.772h-2.3l-5.8-15.945h11.644a1.772,1.772,0,0,0,1.772-1.772V53.206a1.772,1.772,0,0,0-1.772-1.772ZM65.608,23.087a3.543,3.543,0,0,1,7.087,0v2.1a19.476,19.476,0,0,0-7.087,0ZM33.717,90.412a10.648,10.648,0,0,1-10.483-8.859H44.2A10.648,10.648,0,0,1,33.717,90.412Zm6.329-12.4H27.388l5.8-15.945h1.061Zm55.681,40.75H42.576v-3.543H95.727ZM85.1,111.673H53.206l2.658-3.543H82.44Zm-12.215-11.61,2.261,4.523H63.16l2.261-4.523a1.772,1.772,0,0,0,.187-.792V50.184a12.305,12.305,0,0,1,7.087,0V99.271a1.771,1.771,0,0,0,.187.792Zm31.7-9.651A10.648,10.648,0,0,1,94.1,81.554h20.965A10.648,10.648,0,0,1,104.586,90.412Zm6.329-12.4H98.257l5.8-15.945h1.061Zm7.845-19.489h-22.8a17.713,17.713,0,0,1-11.669-4.385l-4.661-4.079h0a15.918,15.918,0,0,0-20.964,0l-4.663,4.08A17.711,17.711,0,0,1,42.34,58.521h-22.8V54.978h9.922a26.528,26.528,0,0,0,23.449-14.07l2.168-4.065a15.946,15.946,0,0,1,28.139,0l2.168,4.065a26.528,26.528,0,0,0,23.449,14.07h9.922Z" transform="translate(-16 -16)"/><path class="a" d="M237.315,88a5.315,5.315,0,1,0,5.315,5.315A5.315,5.315,0,0,0,237.315,88Zm0,7.087a1.772,1.772,0,1,1,1.772-1.772A1.772,1.772,0,0,1,237.315,95.087Z" transform="translate(-184.164 -72.055)"/></svg>