<svg xmlns="http://www.w3.org/2000/svg" width="128.182" height="128.182" viewBox="0 0 128.182 128.182"><defs><style>.a{fill:#257f9b;}</style></defs><g transform="translate(-1 -1)"><path class="a" d="M108.894,60.95l9.467-14.879a8.205,8.205,0,1,0-3.5-2.2L105.3,58.889H78.624l-17.232-26.8L72.4,16.944a8.179,8.179,0,0,0,3.025.6,8.28,8.28,0,1,0-6.378-3.012L57.836,29.944H37.921a8.255,8.255,0,1,0-14.044,7.683L15.059,51.344a10.234,10.234,0,0,0-3.721-.726A10.338,10.338,0,1,0,15.061,70.57l12.38,19.258-11.011,15.14a8.179,8.179,0,0,0-3.025-.6,8.28,8.28,0,1,0,6.378,3.012L31,91.968H57.76L72.625,115.09a6.169,6.169,0,1,0,10.693,5.822H96.311a10.334,10.334,0,1,0,17.331-9.45L127.5,89.9Zm12.018-26.871a4.135,4.135,0,0,1,0,8.27,4.028,4.028,0,0,1-2.225-.651,4.134,4.134,0,0,1,2.225-7.619ZM75.428,5.135a4.135,4.135,0,1,1,0,8.27,4,4,0,0,1-2.446-.819A4.063,4.063,0,0,1,71.293,9.27,4.139,4.139,0,0,1,75.428,5.135ZM37.921,34.079H57.76L75.037,60.956,57.76,87.833H31.073L18.54,68.337a10.26,10.26,0,0,0,0-14.764l8.824-13.728a8.115,8.115,0,0,0,2.58.436,8.259,8.259,0,0,0,7.976-6.2Zm-7.976-6.2a4.135,4.135,0,1,1,0,8.27,4.158,4.158,0,0,1-4.135-4.135A4.139,4.139,0,0,1,29.944,27.877ZM5.135,60.956a6.21,6.21,0,0,1,6.2-6.2,6.2,6.2,0,0,1,0,12.4A6.21,6.21,0,0,1,5.135,60.956Zm8.27,55.821a4.135,4.135,0,0,1,0-8.27,4,4,0,0,1,2.446.819,4.063,4.063,0,0,1,1.689,3.316A4.139,4.139,0,0,1,13.4,116.777ZM77.5,120.912a2.068,2.068,0,0,1-2.067-2.067,2.094,2.094,0,0,1,.992-1.761,1.892,1.892,0,0,1,1.075-.306,2.067,2.067,0,0,1,0,4.135Zm18.816-4.135H83.318a6.194,6.194,0,0,0-5.822-4.135,6.312,6.312,0,0,0-1.418.176L61.347,89.9,78.624,63.023h26.687L122.589,89.9l-12.427,19.333a10.234,10.234,0,0,0-3.721-.726,10.357,10.357,0,0,0-10.128,8.27Zm10.128,8.27a6.2,6.2,0,0,1,0-12.4,6.227,6.227,0,0,1,6.2,6.2A6.21,6.21,0,0,1,106.44,125.047Z"/><path class="a" d="M15,25H31.54v4.135H15Z" transform="translate(14.944 25.619)"/><path class="a" d="M25,25h8.27v4.135H25Z" transform="translate(25.619 25.619)"/><path class="a" d="M15,29H43.944v4.135H15Z" transform="translate(14.944 29.889)"/><path class="a" d="M27,33h4.135v4.135H27Z" transform="translate(27.754 34.158)"/><path class="a" d="M23,33h4.135v4.135H23Z" transform="translate(23.484 34.158)"/><path class="a" d="M15,33H27.4v4.135H15Z" transform="translate(14.944 34.158)"/><path class="a" d="M38,39H54.54v4.135H38Z" transform="translate(39.496 40.563)"/><path class="a" d="M48,39h8.27v4.135H48Z" transform="translate(50.17 40.563)"/><path class="a" d="M38,43H66.944v4.135H38Z" transform="translate(39.496 44.833)"/><path class="a" d="M50,47h4.135v4.135H50Z" transform="translate(52.305 49.103)"/><path class="a" d="M46,47h4.135v4.135H46Z" transform="translate(48.035 49.103)"/><path class="a" d="M38,47H50.4v4.135H38Z" transform="translate(39.496 49.103)"/></g></svg>